<svg version="1.1" id="Layer_1" xmlns="http://www.w3.org/2000/svg" xmlns:xlink="http://www.w3.org/1999/xlink" x="0px" y="0px"
	 width="100%" viewBox="0 0 171 98" enable-background="new 0 0 171 98" xml:space="preserve">
<path fill="#000000" opacity="1.000000" stroke="none" 
	d="
M1.000001,43.000000 
	C1.000000,29.023777 1.000000,15.047553 1.000000,1.035665 
	C57.879402,1.035665 114.758827,1.035665 172.000000,1.035665 
	C172.000000,15.685581 172.000000,30.374132 171.709686,45.829765 
	C170.960846,46.149647 170.359299,45.780762 170.065109,45.243565 
	C165.136993,36.244461 157.791733,30.174509 148.046906,26.969837 
	C148.029388,26.978874 148.039291,26.946562 147.967651,26.712738 
	C147.696793,26.132034 147.414429,26.039860 146.810364,26.118309 
	C146.408142,25.993717 146.244461,25.953213 146.008163,25.667356 
	C145.638382,25.332161 145.341187,25.242315 144.713440,25.095308 
	C143.937347,25.000078 143.491821,24.962006 142.936554,24.639957 
	C141.229874,23.891357 139.632965,23.426737 138.017639,22.979027 
	C137.999222,22.995939 138.037354,22.968483 137.963348,22.727877 
	C137.575134,22.650105 137.260895,22.812937 136.716461,22.990587 
	C136.486267,23.005405 136.027695,22.954678 135.901642,22.672043 
	C135.183884,22.326027 134.592178,22.262648 133.696350,22.042852 
	C125.862061,19.227522 118.230377,17.169107 109.940063,17.631199 
	C107.554924,17.199654 105.211021,17.532585 103.164024,16.901880 
	C91.373558,13.269102 79.405319,15.870847 67.689728,16.525948 
	C55.594852,17.202257 43.441322,19.950693 31.717613,23.235216 
	C20.758211,26.305611 10.397285,31.362335 3.308833,41.112141 
	C2.743395,41.889870 1.778996,42.377537 1.000001,43.000000 
M125.211845,10.158720 
	C125.211845,10.158720 124.967018,10.169923 125.022110,10.213297 
	C125.022110,10.213297 125.052086,10.260953 125.787743,10.546300 
	C126.039505,10.470187 126.291275,10.394073 126.845924,10.762629 
	C127.177193,10.549920 127.508453,10.337212 128.034409,9.598713 
	C128.394867,9.701086 128.755341,9.803460 128.980347,10.740514 
	C129.146149,12.710742 128.878677,15.144090 132.756027,13.668420 
	C133.215286,13.479595 133.674561,13.290770 134.705261,13.500705 
	C135.556610,13.940456 136.407944,14.380208 137.695190,15.089717 
	C138.105362,15.379024 138.515518,15.668330 139.098053,16.537516 
	C139.685425,16.360722 140.272781,16.183929 141.054016,15.520333 
	C141.120529,15.358838 141.187057,15.197343 141.485138,15.093857 
	C141.485138,15.093857 141.722839,15.115721 141.951141,15.684088 
	C142.648056,16.068565 143.344971,16.453041 144.719864,16.982241 
	C145.130447,16.320673 145.541031,15.659105 146.609543,15.215089 
	C147.692490,15.215089 148.775436,15.215089 148.708481,15.215089 
	C148.625732,15.296905 146.648376,9.712884 145.369598,14.978959 
	C144.928345,14.954941 144.487091,14.930923 144.123596,14.563140 
	C144.123596,14.563140 144.068054,14.215096 144.480225,13.946999 
	C144.809647,13.768742 144.950943,13.493896 144.879440,12.484695 
	C144.228180,12.009489 143.576920,11.534283 142.160049,10.995552 
	C141.396469,11.059521 140.632874,11.123490 139.366821,10.916673 
	C138.920685,10.663404 138.474548,10.410133 137.411652,9.903038 
	C135.923569,9.653264 134.435471,9.403490 132.317078,8.998668 
	C131.886887,9.009337 131.456711,9.020007 130.851624,8.544081 
	C130.553146,8.411283 130.254684,8.278486 129.347809,7.886143 
	C128.952667,7.707966 128.557510,7.529789 127.501900,7.155807 
	C126.538742,6.735631 125.575592,6.315456 124.033562,5.642747 
	C124.033562,7.648428 124.033562,9.247406 124.541679,10.961144 
	C124.770454,10.775187 124.999222,10.589231 125.211845,10.158720 
M44.611050,9.753448 
	C44.681362,9.239039 44.751675,8.724630 44.908421,7.577865 
	C44.017769,8.554365 43.609798,9.001663 43.086430,9.536846 
	C43.086430,9.536846 43.019569,9.667966 42.400974,9.734840 
	C41.318871,10.169702 40.236771,10.604563 38.126915,11.452445 
	C40.217159,11.915437 41.020138,12.093298 42.133339,12.823410 
	C42.494118,12.251486 42.854900,11.679562 43.131393,11.076548 
	C43.131393,11.076548 43.139355,11.166033 43.655777,11.043285 
	C43.819889,10.746098 43.984001,10.448910 44.611050,9.753448 
M89.303535,8.024339 
	C88.657440,8.123346 88.011353,8.222353 87.365257,8.321361 
	C87.378967,8.489194 87.392677,8.657026 87.406387,8.824860 
	C88.276695,8.824860 89.147011,8.824860 90.540611,9.036549 
	C90.991386,9.312790 91.442154,9.589031 92.655693,9.962565 
	C94.082954,9.713589 95.510223,9.464612 97.462791,9.080283 
	C97.639999,9.111016 97.817200,9.141748 98.372452,9.748895 
	C99.768867,9.811757 101.165283,9.874619 103.200439,9.966236 
	C102.062317,8.987826 101.617477,8.605412 101.805267,7.893745 
	C102.548386,7.600908 103.291496,7.308071 103.822777,7.789704 
	C105.328133,8.750918 106.833488,9.712132 108.053741,10.491303 
	C108.053741,8.192353 108.053741,6.671183 108.053741,4.376766 
	C106.737305,5.245787 105.360786,6.154473 103.722336,6.309705 
	C102.181389,5.245109 100.640442,4.180513 98.417244,3.002218 
	C97.895882,3.332475 97.374512,3.662733 96.301399,4.022637 
	C95.837471,4.257910 95.373535,4.493182 94.262146,4.983901 
	C93.486626,6.029458 92.711113,7.075016 91.295052,7.997412 
	C90.868988,8.056656 90.442932,8.115900 89.303535,8.024339 
M76.707329,6.796057 
	C77.122940,5.675381 77.538559,4.554706 78.114723,3.001106 
	C77.006668,3.580823 76.468643,3.862314 75.101639,4.012808 
	C73.833992,4.098709 72.566345,4.184610 71.311127,4.269669 
	C71.311127,6.098140 71.311127,7.581145 71.311127,9.001520 
	C73.042229,8.212499 74.538803,7.530377 76.707329,6.796057 
M87.112244,4.592475 
	C88.151764,4.863457 89.191284,5.134438 90.230812,5.405419 
	C90.329613,4.969454 90.428421,4.533489 90.527222,4.097524 
	C89.590179,4.097524 88.653130,4.097524 87.112244,4.592475 
M36.450237,10.302495 
	C36.163040,11.399369 35.875847,12.496244 35.588650,13.593120 
	C36.018799,13.647249 36.448948,13.701379 36.879097,13.755507 
	C36.879097,12.813047 36.879097,11.870586 36.450237,10.302495 
M79.381065,5.842303 
	C80.142334,5.391437 80.903603,4.940570 81.664879,4.489703 
	C81.515739,4.253694 81.366600,4.017685 81.217468,3.781676 
	C80.490196,4.265419 79.762924,4.749161 79.381065,5.842303 
M55.014217,8.471794 
	C54.931339,8.176759 54.848461,7.881723 54.765583,7.586688 
	C54.515110,7.775546 54.264637,7.964404 54.014164,8.153262 
	C54.326900,8.487526 54.639637,8.821790 55.014217,8.471794 
z"/>
<path fill="#EA6A28" opacity="1.000000" stroke="none" 
	d="
M1.000001,43.466118 
	C1.778996,42.377537 2.743395,41.889870 3.308833,41.112141 
	C10.397285,31.362335 20.758211,26.305611 31.717613,23.235216 
	C43.441322,19.950693 55.594852,17.202257 67.689728,16.525948 
	C79.405319,15.870847 91.373558,13.269102 103.164024,16.901880 
	C105.211021,17.532585 107.554924,17.199654 109.463913,17.645550 
	C94.565788,17.986494 79.959351,17.769262 65.369522,18.164724 
	C61.888149,18.259089 57.829350,19.642456 55.210060,21.835224 
	C53.096622,23.604507 52.241333,25.456326 49.352287,23.427465 
	C48.626465,22.917747 47.164333,23.490290 46.039715,23.507042 
	C44.188869,23.534615 42.337318,23.514519 40.374317,23.514519 
	C39.730751,32.339508 39.730751,32.339508 35.039581,32.134975 
	C37.210003,29.337090 39.711971,25.858622 34.750641,24.456953 
	C32.478466,23.815020 28.544075,24.937851 27.575630,28.998283 
	C21.848480,28.817369 17.436714,30.462786 13.892588,35.288574 
	C15.325523,35.715172 16.216028,35.980282 16.885084,36.480919 
	C15.437388,38.130135 14.211140,39.543819 12.780233,40.990635 
	C12.575578,41.023766 12.164303,41.076488 11.919893,40.894218 
	C11.521656,39.595474 11.367828,38.479000 11.214001,37.362526 
	C10.736341,37.242947 10.258679,37.123367 9.781018,37.003784 
	C8.817864,39.269222 7.854710,41.534657 6.729709,44.180771 
	C6.527157,44.126911 5.551007,43.867329 4.884643,43.690128 
	C-0.010037,50.700821 5.052310,55.659203 8.262185,60.748589 
	C9.794601,63.178288 12.527962,64.850555 15.372274,67.468758 
	C15.693156,65.276947 15.870897,64.062866 16.393810,62.926632 
	C17.874195,64.315468 19.009409,65.626457 20.144623,66.937447 
	C19.845205,67.300941 19.545788,67.664444 19.246370,68.027939 
	C20.028433,67.989250 20.810495,67.950569 21.880856,67.844193 
	C22.431847,67.497070 22.694540,67.217628 22.905991,66.932495 
	C22.854744,66.926796 22.809576,66.834091 23.149750,66.730247 
	C24.254261,64.728577 25.018599,62.830750 25.898636,61.193581 
	C28.018126,61.277008 30.021910,61.099781 32.368851,60.952820 
	C33.171589,60.978340 33.631180,60.973591 34.426720,60.979973 
	C35.634777,60.914600 36.506874,60.838097 37.839470,60.721195 
	C37.057465,59.523308 36.556232,58.755505 36.043182,57.542328 
	C36.020130,54.704113 36.008892,52.311275 36.378830,49.910561 
	C38.026230,50.943893 39.679214,51.752598 40.475147,53.076546 
	C41.960026,55.546486 42.946747,58.315907 44.194324,61.126671 
	C44.517700,61.230667 44.787525,61.168697 45.067131,61.083580 
	C45.076920,61.060432 45.110615,61.097725 45.331696,61.087250 
	C45.552773,61.076771 45.992298,61.010784 46.260452,60.756554 
	C46.784763,58.691696 47.040928,56.881073 47.332359,54.821144 
	C48.026737,55.748085 48.493530,56.371220 49.079979,57.276268 
	C50.234249,58.033001 51.268864,58.507824 52.474350,58.982857 
	C52.645222,58.983067 52.986938,58.978310 53.147831,59.276657 
	C54.027168,60.091213 54.745609,60.607418 55.627792,61.332542 
	C59.539894,60.531918 61.081558,57.923653 61.469833,54.132542 
	C62.798058,55.149376 63.817818,56.200188 64.702156,57.354725 
	C65.861450,58.868210 66.913910,60.463535 68.171806,62.322487 
	C69.561600,63.774506 70.791901,64.927696 72.177238,66.341125 
	C72.902779,66.733688 73.473289,66.866005 74.381218,66.932037 
	C75.477623,65.246605 76.236618,63.627460 77.307465,62.088120 
	C79.728401,61.749905 81.837471,61.331894 84.328270,60.945168 
	C85.473373,60.983536 86.236740,60.990616 87.325623,61.035545 
	C90.182579,60.969765 92.714027,60.866135 95.217392,60.829185 
	C95.189323,60.895863 95.055717,60.939133 95.196640,61.180649 
	C95.670868,61.575981 96.004181,61.729797 96.564392,61.827965 
	C97.160774,61.516468 97.530258,61.260616 98.282600,61.003162 
	C99.174774,60.954700 99.684074,60.907837 100.453331,61.135544 
	C104.431732,61.585495 108.150177,61.760880 112.245224,61.937820 
	C112.872200,61.920723 113.122581,61.902077 113.691086,62.090481 
	C118.002045,63.298016 121.904976,63.860542 125.179825,60.053864 
	C125.625969,60.055222 125.804375,60.062027 125.993629,60.297424 
	C126.004478,60.526024 126.096222,60.974449 126.152573,61.358822 
	C129.323868,63.344643 132.383774,64.111778 135.579773,61.141495 
	C137.968781,61.393940 139.975693,61.655087 142.326782,61.966995 
	C143.130508,62.078842 143.590073,62.139931 144.035294,62.594994 
	C144.741714,65.561249 145.462448,68.133530 146.183197,70.705811 
	C146.839111,70.501015 147.495026,70.296227 148.150955,70.091431 
	C147.521561,67.598412 146.892181,65.105392 145.840851,60.941025 
	C150.085373,63.329807 153.028229,64.986015 155.194717,66.205307 
	C157.311676,63.681190 160.064072,61.573727 161.106888,58.819073 
	C162.109283,56.171261 165.101151,52.337868 159.938660,49.700474 
	C157.775635,47.587803 155.774948,45.776215 153.818542,43.586082 
	C154.337234,41.833496 154.811676,40.459454 155.796600,37.606876 
	C157.566376,40.854492 158.569855,42.695950 159.573349,44.537407 
	C159.443542,41.623970 162.080566,37.751579 156.961182,36.453960 
	C156.618225,35.786934 156.309433,35.382790 155.949203,34.666363 
	C155.265671,33.904354 154.633591,33.454624 154.000748,33.002525 
	C154.000000,33.000153 153.995117,32.998867 153.965469,32.692516 
	C153.567703,31.783937 153.199600,31.181711 152.352036,29.795115 
	C152.165298,31.494452 152.082642,32.246464 151.600464,32.998528 
	C150.135773,33.000252 149.070633,33.001926 148.004028,32.571724 
	C148.023178,30.413498 148.043793,28.687147 148.064423,26.960798 
	C157.791733,30.174509 165.136993,36.244461 170.065109,45.243565 
	C170.359299,45.780762 170.960846,46.149647 171.709686,46.298424 
	C172.000000,47.066669 172.000000,48.133339 171.716064,49.305264 
	C171.171173,49.935631 170.910187,50.460743 170.649216,50.985851 
	C171.099472,50.990566 171.549744,50.995281 172.000000,51.000000 
	C172.000000,52.388889 172.000000,53.777779 171.714447,55.285084 
	C168.140854,58.960224 165.204224,62.944714 161.496552,65.990654 
	C151.736115,74.009102 139.470474,75.859772 127.728584,79.053452 
	C117.420036,81.857285 107.126755,84.868965 97.131241,88.603790 
	C92.584206,90.302795 87.938789,93.175949 87.000000,99.000000 
	C86.555557,99.000000 86.111107,99.000000 85.636452,98.722000 
	C82.060646,95.304581 78.515060,92.165154 74.866348,88.680450 
	C72.079971,87.178299 69.488907,85.680443 66.696960,84.925484 
	C56.382072,82.136261 45.999870,79.596199 35.644718,76.955612 
	C24.179440,74.031944 13.380483,69.804955 4.766656,61.256763 
	C3.591302,60.090363 2.259413,59.081699 1.000000,58.000000 
	C1.000000,53.310745 1.000000,48.621487 1.000001,43.466118 
z"/>
<path fill="#000000" opacity="1.000000" stroke="none" 
	d="
M87.468620,99.000000 
	C87.938789,93.175949 92.584206,90.302795 97.131241,88.603790 
	C107.126755,84.868965 117.420036,81.857285 127.728584,79.053452 
	C139.470474,75.859772 151.736115,74.009102 161.496552,65.990654 
	C165.204224,62.944714 168.140854,58.960224 171.714447,55.701752 
	C172.000000,70.266296 172.000000,84.532585 172.000000,99.000000 
	C155.312973,99.000000 138.625153,99.000000 121.286758,98.655502 
	C120.809700,95.793526 121.238533,93.242912 120.920105,90.789276 
	C120.863121,90.350227 117.715614,90.312256 115.644592,90.054848 
	C112.543221,90.924301 109.792343,91.828003 107.058655,92.758789 
	C107.075836,92.785866 107.031731,92.740089 106.761765,92.883530 
	C106.010872,93.395706 105.529953,93.764435 104.724274,94.136200 
	C104.324928,94.745155 104.250359,95.351067 104.313660,96.292587 
	C106.015923,96.440918 107.580322,96.253632 109.440811,96.259872 
	C109.824608,97.302269 109.912308,98.151138 110.000000,99.000000 
	C102.645744,99.000000 95.291496,99.000000 87.468620,99.000000 
M128.777069,84.483482 
	C129.463470,84.305351 130.149872,84.127220 130.836273,83.949081 
	C130.801895,83.698273 130.767517,83.447464 130.733139,83.196655 
	C129.875793,83.196655 129.018463,83.196655 127.380066,83.257835 
	C126.622986,83.619850 125.865906,83.981865 125.108833,84.343880 
	C125.774536,84.558830 126.440231,84.773788 127.071579,85.792831 
	C127.068352,86.863312 127.065117,87.933800 126.292244,89.149513 
	C126.132156,89.115967 125.972588,89.059494 125.811829,89.055931 
	C125.677116,89.052940 125.541046,89.111725 125.405571,89.143158 
	C125.860580,89.781364 126.315582,90.419579 126.770584,91.057785 
	C127.515800,90.372520 128.261017,89.687256 129.327957,88.321213 
	C130.024872,88.061378 130.721786,87.801544 131.715424,87.431084 
	C130.363861,86.285583 129.322647,85.403137 128.116699,84.482780 
	C128.116699,84.482780 127.975891,84.576324 128.777069,84.483482 
M101.020973,93.557610 
	C100.716530,92.624573 100.412086,91.691536 100.107643,90.758499 
	C99.725731,90.899696 99.343811,91.040894 98.961891,91.182091 
	C99.498863,92.869530 100.035835,94.556969 100.797127,96.949333 
	C100.911110,95.555557 100.963295,94.917488 101.020973,93.557610 
M132.641663,89.858841 
	C132.708313,88.929276 132.774948,87.999718 132.841583,87.070152 
	C132.515625,87.035309 132.189682,87.000465 131.863724,86.965622 
	C131.863724,87.948074 131.863724,88.930534 132.641663,89.858841 
M134.031525,86.706024 
	C134.149536,87.278275 134.267563,87.850533 134.385574,88.422783 
	C134.599228,88.371445 134.812881,88.320107 135.026520,88.268768 
	C134.855560,87.584396 134.684601,86.900032 134.031525,86.706024 
z"/>
<path fill="#000000" opacity="1.000000" stroke="none" 
	d="
M1.000000,58.468658 
	C2.259413,59.081699 3.591302,60.090363 4.766656,61.256763 
	C13.380483,69.804955 24.179440,74.031944 35.644718,76.955612 
	C45.999870,79.596199 56.382072,82.136261 66.696960,84.925484 
	C69.488907,85.680443 72.079971,87.178299 74.883636,88.663712 
	C75.004028,88.992241 75.037323,88.957497 74.746857,89.007263 
	C74.246407,89.378624 74.036438,89.700226 73.437462,90.015457 
	C72.014381,90.071640 70.980309,90.134193 69.667641,90.199486 
	C69.108711,90.452209 68.828369,90.702187 68.268448,90.735916 
	C66.582520,89.830856 65.176170,89.142036 64.441368,88.782135 
	C62.880680,90.718140 61.953365,91.868446 61.017860,93.008270 
	C61.009670,92.997787 61.024521,92.986214 61.004539,92.666016 
	C60.700905,91.630180 60.417252,90.914551 59.738117,90.093285 
	C59.073856,90.034874 58.805077,90.082100 58.226566,90.086899 
	C57.294941,90.097107 56.673050,90.149742 55.780136,90.124023 
	C55.294437,90.337204 55.079765,90.628738 54.506447,90.950569 
	C53.426624,90.967445 52.705456,90.954018 51.777145,90.646088 
	C50.109417,90.066231 48.620224,89.500404 47.203461,89.644875 
	C46.694897,89.696739 45.978168,91.479225 46.024616,92.439552 
	C46.130901,94.636955 46.649090,96.814430 47.000000,99.000000 
	C31.744186,99.000000 16.488373,99.000000 1.000000,99.000000 
	C1.000000,85.646675 1.000000,72.291992 1.000000,58.468658 
z"/>
<path fill="#000000" opacity="1.000000" stroke="none" 
	d="
M74.986748,89.008987 
	C78.515060,92.165154 82.060646,95.304581 85.303116,98.722000 
	C79.645073,99.000000 74.290138,99.000000 68.269760,98.673355 
	C68.013908,97.270210 68.423492,96.193710 68.895378,95.394356 
	C69.268082,96.053131 69.578491,96.434753 70.252747,96.891106 
	C71.686859,96.645309 72.757133,96.324791 73.909332,95.654594 
	C73.898819,94.842010 73.806381,94.379105 73.734993,93.705109 
	C73.756042,93.494026 73.670403,93.078491 73.860519,92.748024 
	C74.379532,91.264206 74.708427,90.110847 75.037323,88.957497 
	C75.037323,88.957497 75.004028,88.992241 74.986748,89.008987 
z"/>
<path fill="#C7525A" opacity="1.000000" stroke="none" 
	d="
M47.399994,99.000000 
	C46.649090,96.814430 46.130901,94.636955 46.024616,92.439552 
	C45.978168,91.479225 46.694897,89.696739 47.203461,89.644875 
	C48.620224,89.500404 50.109417,90.066231 51.516132,90.698578 
	C51.326946,91.122780 51.146492,91.170113 51.069756,91.286079 
	C51.001080,91.389854 50.984264,91.612999 51.051304,91.708755 
	C52.028885,93.105049 53.024410,94.488770 53.690155,96.050186 
	C52.576431,97.149918 51.788212,98.074959 51.000000,99.000000 
	C49.933331,99.000000 48.866661,99.000000 47.399994,99.000000 
z"/>
<path fill="#BC5057" opacity="1.000000" stroke="none" 
	d="
M68.833084,95.117210 
	C68.423492,96.193710 68.013908,97.270210 67.802155,98.673355 
	C66.611115,99.000000 65.222221,99.000000 63.603500,98.636627 
	C62.592762,97.168671 61.811852,96.064087 61.019279,94.636826 
	C61.013767,93.882355 61.019913,93.450554 61.026054,93.018761 
	C61.953365,91.868446 62.880680,90.718140 64.441368,88.782135 
	C65.176170,89.142036 66.582520,89.830856 68.365387,90.867561 
	C68.741905,91.215446 68.953400,91.462563 68.677292,91.835640 
	C68.523651,92.492882 68.646133,92.777046 68.447769,93.086899 
	C67.570068,93.181435 67.013191,93.250290 66.456322,93.319153 
	C66.467384,93.511856 66.478439,93.704552 66.489502,93.897255 
	C67.289093,93.897255 68.088692,93.897255 68.866753,94.201889 
	C68.841179,94.710083 68.837135,94.913643 68.833084,95.117210 
z"/>
<path fill="#BF494C" opacity="1.000000" stroke="none" 
	d="
M107.041466,92.731712 
	C109.792343,91.828003 112.543221,90.924301 115.655502,90.397514 
	C115.718773,92.983688 120.424644,94.458443 116.705269,97.096069 
	C116.460159,97.058228 115.999962,96.873085 115.994835,96.544846 
	C115.700462,95.375404 115.411217,94.534210 114.608368,92.199341 
	C113.397934,95.355240 112.698959,97.177620 112.000000,99.000000 
	C111.555557,99.000000 111.111107,99.000000 110.333328,99.000000 
	C109.912308,98.151138 109.824608,97.302269 109.146240,96.231918 
	C108.358963,95.994629 108.162354,95.978821 107.972099,95.727493 
	C107.978447,95.491966 107.990311,95.020905 108.217773,94.777077 
	C107.977318,93.932739 107.509392,93.332222 107.041466,92.731712 
z"/>
<path fill="#BE4750" opacity="1.000000" stroke="none" 
	d="
M116.950378,97.133911 
	C120.424644,94.458443 115.718773,92.983688 116.005997,90.431763 
	C117.715614,90.312256 120.863121,90.350227 120.920105,90.789276 
	C121.238533,93.242912 120.809700,95.793526 120.818100,98.655502 
	C119.933327,99.000000 118.866661,99.000000 117.697647,98.757545 
	C117.380341,98.054695 117.165359,97.594307 116.950378,97.133911 
z"/>
<path fill="#000000" opacity="1.000000" stroke="none" 
	d="
M61.030941,94.959511 
	C61.811852,96.064087 62.592762,97.168671 63.186836,98.636627 
	C59.307091,99.000000 55.614182,99.000000 51.460632,99.000000 
	C51.788212,98.074959 52.576431,97.149918 53.894104,96.102051 
	C54.423565,95.979218 54.838959,96.049644 54.942978,96.336945 
	C55.402866,96.680946 55.758739,96.737648 56.479279,96.858948 
	C57.577518,96.930092 58.311089,96.936638 59.379814,96.960480 
	C60.147728,96.323074 60.580486,95.668373 61.013275,95.000488 
	C61.013306,94.987297 61.030941,94.959511 61.030941,94.959511 
z"/>
<path fill="#BE4750" opacity="1.000000" stroke="none" 
	d="
M112.375000,99.000000 
	C112.698959,97.177620 113.397934,95.355240 114.608368,92.199341 
	C115.411217,94.534210 115.700462,95.375404 115.668304,96.716324 
	C115.231262,97.810692 115.115631,98.405350 115.000000,99.000000 
	C114.250000,99.000000 113.500000,99.000000 112.375000,99.000000 
z"/>
<path fill="#000000" opacity="1.000000" stroke="none" 
	d="
M115.333328,99.000000 
	C115.115631,98.405350 115.231262,97.810692 115.673431,97.044563 
	C115.999962,96.873085 116.460159,97.058228 116.705269,97.096069 
	C117.165359,97.594307 117.380341,98.054695 117.297653,98.757545 
	C116.555557,99.000000 116.111107,99.000000 115.333328,99.000000 
z"/>
<path fill="#000000" opacity="1.000000" stroke="none" 
	d="
M172.000000,50.750000 
	C171.549744,50.995281 171.099472,50.990566 170.649216,50.985851 
	C170.910187,50.460743 171.171173,49.935631 171.716064,49.705261 
	C172.000000,50.000000 172.000000,50.500000 172.000000,50.750000 
z"/>
<path fill="#EB6928" opacity="1.000000" stroke="none" 
	d="
M148.046906,26.969837 
	C148.043793,28.687147 148.023178,30.413498 148.001221,32.965363 
	C146.936768,35.713245 145.873627,37.635609 144.431778,40.242779 
	C144.547028,41.196159 144.777985,43.106644 145.005249,45.008865 
	C145.001587,45.000599 145.011902,45.009995 144.657318,45.005775 
	C143.595581,45.003918 142.888443,45.006283 142.130157,44.607861 
	C142.133209,42.604519 142.472366,40.938446 142.134628,39.423264 
	C141.932220,38.515160 140.671875,37.842873 139.887024,37.064590 
	C139.261063,37.763134 138.635117,38.461678 138.000229,39.612720 
	C137.992599,42.877304 138.265182,45.724209 137.910110,48.490551 
	C137.621475,50.739136 136.580261,52.891121 135.639008,55.201580 
	C135.191757,55.590961 134.978287,55.864712 134.495926,56.296829 
	C133.456390,57.153767 132.685745,57.852333 130.977661,59.400677 
	C130.977661,51.833054 130.977661,45.376705 130.983917,38.633766 
	C130.653946,37.952602 130.317719,37.558029 129.650269,37.116020 
	C128.213425,37.377975 127.107765,37.687370 125.992577,38.247902 
	C125.997124,38.665989 126.011208,38.832943 126.011009,39.465523 
	C125.995483,43.414577 126.195213,46.915726 125.890442,50.372395 
	C125.774483,51.687569 124.499535,52.900555 123.571304,54.458359 
	C122.309280,56.139492 121.228775,57.522377 120.148270,58.905266 
	C119.430214,58.206097 118.106819,57.522213 118.088722,56.805370 
	C117.926537,50.382416 117.994102,43.953663 117.994102,37.112270 
	C117.214287,37.112270 115.284981,37.112270 112.998878,37.077133 
	C111.775108,37.273232 110.908127,37.504471 109.711639,37.812149 
	C108.933220,37.874290 108.484322,37.859989 107.739212,37.575523 
	C105.247040,37.196770 103.051079,37.088192 100.547379,36.986828 
	C99.499664,37.276581 98.759689,37.559120 97.641838,37.893600 
	C96.811272,39.441429 96.509285,41.005745 95.868729,42.416313 
	C95.019173,44.287098 98.683784,48.512871 92.967690,47.582024 
	C91.922752,45.148727 90.973099,43.055416 89.882004,40.694283 
	C88.849411,39.632832 87.958260,38.839203 86.757797,37.910797 
	C85.591797,37.546852 84.735123,37.317688 83.457497,37.087036 
	C81.350388,37.026184 79.664223,36.966812 77.765083,36.679958 
	C76.672424,36.685318 75.792740,36.918159 74.547882,37.135315 
	C69.508522,36.042591 65.708733,36.751770 64.020149,42.283573 
	C63.583782,43.001465 63.274021,43.468189 62.648312,43.792831 
	C61.865788,42.988987 61.497025,42.221085 60.914936,41.684673 
	C58.885567,39.814560 56.782394,38.024548 54.707272,36.204086 
	C52.825916,38.647877 50.881721,41.047474 49.109196,43.567806 
	C48.687622,44.167233 48.840454,45.170628 48.394657,45.878460 
	C47.929035,43.009911 47.797836,40.251114 47.690830,38.001068 
	C45.649097,38.001068 43.325150,38.001068 40.669178,38.000565 
	C39.894482,37.999649 39.451817,37.999241 38.788780,37.911575 
	C38.038132,37.884613 37.507843,37.944908 36.583008,37.998806 
	C35.137154,38.010098 34.085846,38.027786 32.722652,38.034489 
	C31.995869,38.047249 31.580973,38.070992 31.034122,37.832111 
	C30.604099,37.321850 30.306034,37.074211 30.067146,36.471161 
	C33.151169,30.627304 32.855240,29.636152 28.001295,29.001295 
	C28.000057,29.000057 27.997469,28.997467 27.997469,28.997467 
	C28.544075,24.937851 32.478466,23.815020 34.750641,24.456953 
	C39.711971,25.858622 37.210003,29.337090 35.039581,32.134975 
	C39.730751,32.339508 39.730751,32.339508 40.374317,23.514519 
	C42.337318,23.514519 44.188869,23.534615 46.039715,23.507042 
	C47.164333,23.490290 48.626465,22.917747 49.352287,23.427465 
	C52.241333,25.456326 53.096622,23.604507 55.210060,21.835224 
	C57.829350,19.642456 61.888149,18.259089 65.369522,18.164724 
	C79.959351,17.769262 94.565788,17.986494 109.642288,17.964939 
	C118.230377,17.169107 125.862061,19.227522 133.744720,22.314203 
	C134.740723,22.812872 135.384201,22.883776 136.027695,22.954678 
	C136.027695,22.954678 136.486267,23.005405 136.989182,22.995733 
	C137.673843,22.980202 137.855606,22.974342 138.037354,22.968483 
	C138.037354,22.968483 137.999222,22.995939 138.066528,23.313137 
	C139.771317,24.061537 141.408813,24.492737 143.046310,24.923935 
	C143.491821,24.962006 143.937347,25.000078 144.839279,25.279392 
	C145.512299,25.741581 145.773987,25.872272 146.080765,25.912706 
	C146.244461,25.953213 146.408142,25.993717 146.932556,26.293190 
	C147.501495,26.760168 147.750153,26.891636 148.039291,26.946562 
	C148.039291,26.946562 148.029388,26.978874 148.046906,26.969837 
z"/>
<path fill="#AE414A" opacity="1.000000" stroke="none" 
	d="
M76.035370,6.848256 
	C74.538803,7.530377 73.042229,8.212499 71.311127,9.001520 
	C71.311127,7.581145 71.311127,6.098140 71.311127,4.269669 
	C72.566345,4.184610 73.833992,4.098709 75.527512,4.416331 
	C75.980713,5.495987 76.008041,6.172122 76.035370,6.848256 
z"/>
<path fill="#A85054" opacity="1.000000" stroke="none" 
	d="
M103.984261,7.063159 
	C105.360786,6.154473 106.737305,5.245787 108.053741,4.376766 
	C108.053741,6.671183 108.053741,8.192353 108.053741,10.491303 
	C106.833488,9.712132 105.328133,8.750918 103.918907,7.416487 
	C104.015038,7.043270 103.984261,7.063159 103.984261,7.063159 
z"/>
<path fill="#B44D53" opacity="1.000000" stroke="none" 
	d="
M99.099503,3.115916 
	C100.640442,4.180513 102.181389,5.245109 103.853302,6.686432 
	C103.984261,7.063159 104.015038,7.043270 104.024826,7.029252 
	C103.291496,7.308071 102.548386,7.600908 101.295197,7.774841 
	C100.420555,7.383922 100.055992,7.111907 99.815742,6.579759 
	C99.622040,5.829134 99.304031,5.338641 99.027458,4.560150 
	C99.079102,3.886740 99.089302,3.501327 99.099503,3.115916 
z"/>
<path fill="#B8585E" opacity="1.000000" stroke="none" 
	d="
M124.033562,10.846384 
	C124.033562,9.247406 124.033562,7.648428 124.033562,5.642747 
	C125.575592,6.315456 126.538742,6.735631 127.665955,7.528647 
	C127.388214,8.354034 126.946411,8.806581 126.199654,9.314173 
	C125.585472,9.636120 125.276245,9.903022 124.967018,10.169924 
	C124.967018,10.169923 125.211845,10.158720 124.989059,10.225182 
	C124.434288,10.360617 124.190048,10.545530 124.033562,10.846384 
z"/>
<path fill="#C75457" opacity="1.000000" stroke="none" 
	d="
M137.259293,14.819960 
	C136.407944,14.380208 135.556610,13.940456 134.399261,13.034794 
	C134.056168,12.394475 134.019089,12.220067 134.151306,11.791191 
	C134.654083,11.307549 134.987549,11.078374 135.409760,10.852366 
	C135.498474,10.855534 135.675797,10.846157 135.989136,10.881514 
	C136.722198,10.940727 137.141953,10.964585 137.508484,11.250583 
	C137.554733,11.660745 137.654175,11.808765 137.584824,12.114662 
	C137.634216,12.808731 137.852402,13.344923 137.913025,14.022156 
	C137.492401,14.308348 137.327011,14.527268 137.259293,14.819960 
z"/>
<path fill="#BD545B" opacity="1.000000" stroke="none" 
	d="
M141.722839,15.115723 
	C141.722839,15.115721 141.485138,15.093857 140.921875,14.878050 
	C140.054504,14.771972 139.750427,14.881701 139.439484,15.000755 
	C139.432617,15.010081 139.464722,15.019748 139.488800,14.577154 
	C139.326187,13.905498 139.139511,13.676435 138.910522,13.245190 
	C138.895508,12.767102 138.955872,12.498626 139.227875,12.096237 
	C139.653549,11.755056 139.807831,11.499245 139.869293,11.187459 
	C140.632874,11.123490 141.396469,11.059521 142.379242,11.282925 
	C142.161301,11.904442 141.724167,12.238585 141.287048,12.572727 
	C141.618530,12.799356 141.950012,13.025986 142.350616,13.450147 
	C142.617401,13.845780 142.808319,14.050212 142.814056,14.448643 
	C142.331406,14.796116 142.027115,14.955920 141.722839,15.115723 
z"/>
<path fill="#A9464B" opacity="1.000000" stroke="none" 
	d="
M96.937485,9.215636 
	C95.510223,9.464612 94.082954,9.713589 92.314148,9.624227 
	C91.960258,8.897449 91.947929,8.509008 91.935593,8.120571 
	C92.711113,7.075016 93.486626,6.029458 94.760986,5.143576 
	C95.616821,5.568708 95.973824,5.834166 96.191261,6.330908 
	C95.725075,6.980252 95.398445,7.398311 94.839035,7.987676 
	C95.383331,8.511200 96.160408,8.863419 96.937485,9.215636 
z"/>
<path fill="#A7575A" opacity="1.000000" stroke="none" 
	d="
M129.956207,8.145688 
	C130.254684,8.278486 130.553146,8.411283 130.937347,9.024640 
	C131.023087,9.505199 131.029984,9.979555 131.007233,10.296938 
	C131.237595,11.364832 131.490707,12.115344 131.792969,13.118735 
	C131.959534,13.496931 132.076965,13.622249 132.194397,13.747567 
	C128.878677,15.144090 129.146149,12.710742 129.293808,10.215058 
	C129.723572,9.174964 129.839890,8.660326 129.956207,8.145688 
z"/>
<path fill="#B35360" opacity="1.000000" stroke="none" 
	d="
M137.561691,10.988442 
	C137.141953,10.964585 136.722198,10.940727 136.039642,10.696388 
	C135.624908,10.600339 135.472977,10.724771 135.321030,10.849201 
	C134.987549,11.078374 134.654083,11.307549 133.895203,11.700318 
	C133.244873,11.583042 133.019958,11.302171 132.832352,10.710754 
	C132.895569,9.984714 132.921478,9.569215 132.947388,9.153717 
	C134.435471,9.403490 135.923569,9.653264 137.648163,10.262753 
	C137.884689,10.622468 137.561691,10.988442 137.561691,10.988442 
z"/>
<path fill="#EA6A28" opacity="1.000000" stroke="none" 
	d="
M142.936554,24.639957 
	C141.408813,24.492737 139.771317,24.061537 138.084930,23.296227 
	C139.632965,23.426737 141.229874,23.891357 142.936554,24.639957 
z"/>
<path fill="#BB4F52" opacity="1.000000" stroke="none" 
	d="
M99.691429,6.839890 
	C100.055992,7.111907 100.420555,7.383922 100.978882,7.939467 
	C101.617477,8.605412 102.062317,8.987826 103.200439,9.966236 
	C101.165283,9.874619 99.768867,9.811757 98.369339,9.278380 
	C98.551582,8.513381 98.736938,8.218895 98.929718,7.675658 
	C99.083954,7.096708 99.335381,6.901035 99.691429,6.839890 
z"/>
<path fill="#BF5A59" opacity="1.000000" stroke="none" 
	d="
M146.029327,15.075898 
	C146.648376,9.712884 148.625732,15.296905 148.708481,15.215089 
	C148.775436,15.215089 147.692490,15.215089 146.315460,15.110202 
	C146.021378,15.005315 146.029327,15.075898 146.029327,15.075898 
z"/>
<path fill="#CF6468" opacity="1.000000" stroke="none" 
	d="
M41.823120,12.271159 
	C41.020138,12.093298 40.217159,11.915437 38.126915,11.452445 
	C40.236771,10.604563 41.318871,10.169702 42.746208,10.075331 
	C43.107414,10.665892 43.123383,10.915962 43.139355,11.166033 
	C43.139355,11.166033 43.131393,11.076548 42.884762,11.210667 
	C42.366459,11.653576 42.094791,11.962368 41.823120,12.271159 
z"/>
<path fill="#FFB5BB" opacity="1.000000" stroke="none" 
	d="
M87.414169,4.344999 
	C88.653130,4.097524 89.590179,4.097524 90.527222,4.097524 
	C90.428421,4.533489 90.329613,4.969454 90.230812,5.405419 
	C89.191284,5.134438 88.151764,4.863457 87.414169,4.344999 
z"/>
<path fill="#FDBFC0" opacity="1.000000" stroke="none" 
	d="
M129.652008,8.015915 
	C129.839890,8.660326 129.723572,9.174964 129.361542,9.797718 
	C128.755341,9.803460 128.394867,9.701086 127.607498,9.871647 
	C126.968079,10.202374 126.755554,10.260166 126.543037,10.317959 
	C126.291275,10.394073 126.039505,10.470187 125.862427,10.262701 
	C126.126274,9.739110 126.315437,9.499119 126.504608,9.259128 
	C126.946411,8.806581 127.388214,8.354034 127.996193,7.626550 
	C128.557510,7.529789 128.952667,7.707966 129.652008,8.015915 
z"/>
<path fill="#A84043" opacity="1.000000" stroke="none" 
	d="
M36.664665,10.615311 
	C36.879097,11.870586 36.879097,12.813047 36.879097,13.755507 
	C36.448948,13.701379 36.018799,13.647249 35.588650,13.593120 
	C35.875847,12.496244 36.163040,11.399369 36.664665,10.615311 
z"/>
<path fill="#FFE4DE" opacity="1.000000" stroke="none" 
	d="
M76.371353,6.822157 
	C76.008041,6.172122 75.980713,5.495987 75.941994,4.481829 
	C76.468643,3.862314 77.006668,3.580823 78.114723,3.001106 
	C77.538559,4.554706 77.122940,5.675381 76.371353,6.822157 
z"/>
<path fill="#FDD6D6" opacity="1.000000" stroke="none" 
	d="
M98.922295,7.924410 
	C98.736938,8.218895 98.551582,8.513381 98.180313,8.990173 
	C97.817200,9.141748 97.639999,9.111016 97.200134,9.147961 
	C96.160408,8.863419 95.383331,8.511200 95.221405,8.066471 
	C96.865135,7.957445 97.893715,7.940928 98.922295,7.924410 
z"/>
<path fill="#FFC7DD" opacity="1.000000" stroke="none" 
	d="
M132.795044,11.021298 
	C133.019958,11.302171 133.244873,11.583042 133.725891,11.954786 
	C134.019089,12.220067 134.056168,12.394475 134.113541,12.835413 
	C133.674561,13.290770 133.215286,13.479595 132.475220,13.707994 
	C132.076965,13.622249 131.959534,13.496931 131.904846,12.816271 
	C132.036118,11.842206 132.104645,11.423484 132.328674,11.007801 
	C132.484177,11.010839 132.795044,11.021298 132.795044,11.021298 
z"/>
<path fill="#632E2F" opacity="1.000000" stroke="none" 
	d="
M142.281494,13.252617 
	C141.950012,13.025986 141.618530,12.799356 141.287048,12.572727 
	C141.724167,12.238585 142.161301,11.904442 142.762039,11.314687 
	C143.576920,11.534283 144.228180,12.009489 144.564545,12.678993 
	C143.593597,12.999733 142.937546,13.126175 142.281494,13.252617 
z"/>
<path fill="#FFCACD" opacity="1.000000" stroke="none" 
	d="
M98.758377,3.059067 
	C99.089302,3.501327 99.079102,3.886740 98.690720,4.628931 
	C97.863701,5.050474 97.414864,5.115238 96.990845,4.878205 
	C96.961510,4.381936 96.907333,4.187464 96.853149,3.992990 
	C97.374512,3.662733 97.895882,3.332475 98.758377,3.059067 
z"/>
<path fill="#FA6C73" opacity="1.000000" stroke="none" 
	d="
M79.208359,5.537603 
	C79.762924,4.749161 80.490196,4.265419 81.217468,3.781676 
	C81.366600,4.017685 81.515739,4.253694 81.664879,4.489703 
	C80.903603,4.940570 80.142334,5.391437 79.208359,5.537603 
z"/>
<path fill="#B13744" opacity="1.000000" stroke="none" 
	d="
M96.577271,4.007814 
	C96.907333,4.187464 96.961510,4.381936 97.005081,5.091643 
	C96.862534,5.891352 96.641312,6.055601 96.330818,6.099624 
	C95.973824,5.834166 95.616821,5.568708 95.084717,5.015853 
	C95.373535,4.493182 95.837471,4.257910 96.577271,4.007814 
z"/>
<path fill="#B85662" opacity="1.000000" stroke="none" 
	d="
M141.836990,15.399906 
	C142.027115,14.955920 142.331406,14.796116 143.083923,14.460228 
	C143.710800,14.261128 143.889435,14.238112 144.068054,14.215096 
	C144.068054,14.215096 144.123596,14.563140 144.085495,15.056559 
	C144.045547,15.979158 144.043716,16.408339 144.041885,16.837519 
	C143.344971,16.453041 142.648056,16.068565 141.836990,15.399906 
z"/>
<path fill="#F7C7C8" opacity="1.000000" stroke="none" 
	d="
M144.380875,16.909880 
	C144.043716,16.408339 144.045547,15.979158 144.046616,15.228441 
	C144.487091,14.930923 144.928345,14.954941 145.699463,15.027429 
	C146.029327,15.075898 146.021378,15.005315 145.986496,15.001427 
	C145.541031,15.659105 145.130447,16.320673 144.380875,16.909880 
z"/>
<path fill="#EA6A28" opacity="1.000000" stroke="none" 
	d="
M135.901642,22.672043 
	C135.384201,22.883776 134.740723,22.812872 134.048859,22.470619 
	C134.592178,22.262648 135.183884,22.326027 135.901642,22.672043 
z"/>
<path fill="#FFBBC4" opacity="1.000000" stroke="none" 
	d="
M132.832352,10.710754 
	C132.795044,11.021298 132.484177,11.010839 132.237091,10.742649 
	C131.669983,10.309490 131.349991,10.144522 131.029984,9.979555 
	C131.029984,9.979555 131.023087,9.505199 131.024811,9.267938 
	C131.456711,9.020007 131.886887,9.009337 132.632233,9.076193 
	C132.921478,9.569215 132.895569,9.984714 132.832352,10.710754 
z"/>
<path fill="#FEC7BA" opacity="1.000000" stroke="none" 
	d="
M54.983295,8.813925 
	C54.639637,8.821790 54.326900,8.487526 54.014164,8.153261 
	C54.264637,7.964404 54.515110,7.775546 54.765579,7.586688 
	C54.848461,7.881723 54.931339,8.176759 54.983295,8.813925 
z"/>
<path fill="#FCD7D8" opacity="1.000000" stroke="none" 
	d="
M137.508484,11.250583 
	C137.561691,10.988442 137.884689,10.622468 137.956543,10.389666 
	C138.474548,10.410133 138.920685,10.663404 139.618057,11.052066 
	C139.807831,11.499245 139.653549,11.755056 138.908081,12.003146 
	C138.190994,12.019861 137.972305,11.988323 137.753601,11.956785 
	C137.654175,11.808765 137.554733,11.660745 137.508484,11.250583 
z"/>
<path fill="#FBB4AF" opacity="1.000000" stroke="none" 
	d="
M90.017319,8.824860 
	C89.147011,8.824860 88.276695,8.824860 87.406387,8.824860 
	C87.392677,8.657026 87.378967,8.489194 87.365257,8.321361 
	C88.011353,8.222353 88.657440,8.123346 89.657578,8.262165 
	C90.011620,8.499990 90.017319,8.824860 90.017319,8.824860 
z"/>
<path fill="#F4B7BC" opacity="1.000000" stroke="none" 
	d="
M144.274139,14.081047 
	C143.889435,14.238112 143.710800,14.261128 143.262299,14.272559 
	C142.808319,14.050212 142.617401,13.845780 142.350616,13.450148 
	C142.937546,13.126175 143.593597,12.999733 144.576874,12.997875 
	C144.950943,13.493896 144.809647,13.768742 144.274139,14.081047 
z"/>
<path fill="#F9B9B8" opacity="1.000000" stroke="none" 
	d="
M138.952835,13.447371 
	C139.139511,13.676435 139.326187,13.905498 139.287903,14.773994 
	C139.017197,15.594831 138.971451,15.776233 138.925690,15.957636 
	C138.515518,15.668330 138.105362,15.379024 137.477234,14.954838 
	C137.327011,14.527268 137.492401,14.308348 138.178406,14.004494 
	C138.718506,13.712984 138.835663,13.580177 138.952835,13.447371 
z"/>
<path fill="#FDD6D6" opacity="1.000000" stroke="none" 
	d="
M90.278961,8.930704 
	C90.017319,8.824860 90.011620,8.499990 90.014244,8.337566 
	C90.442932,8.115900 90.868988,8.056656 91.615326,8.058990 
	C91.947929,8.509008 91.960258,8.897449 91.932762,9.575581 
	C91.442154,9.589031 90.991386,9.312790 90.278961,8.930704 
z"/>
<path fill="#A64F53" opacity="1.000000" stroke="none" 
	d="
M139.011871,16.247576 
	C138.971451,15.776233 139.017197,15.594831 139.263840,15.216588 
	C139.464722,15.019748 139.432617,15.010081 139.651550,15.210560 
	C140.200378,15.609736 140.530258,15.808434 140.860153,16.007133 
	C140.272781,16.183929 139.685425,16.360722 139.011871,16.247576 
z"/>
<path fill="#B76A66" opacity="1.000000" stroke="none" 
	d="
M41.978230,12.547285 
	C42.094791,11.962368 42.366459,11.653576 42.926903,11.226212 
	C42.854900,11.679562 42.494118,12.251486 41.978230,12.547285 
z"/>
<path fill="#B76A66" opacity="1.000000" stroke="none" 
	d="
M43.201824,9.448961 
	C43.609798,9.001663 44.017769,8.554365 44.908421,7.577865 
	C44.751675,8.724630 44.681362,9.239039 44.155762,9.759722 
	C43.534256,9.660316 43.368042,9.554640 43.201824,9.448961 
z"/>
<path fill="#B76A66" opacity="1.000000" stroke="none" 
	d="
M43.397568,11.104659 
	C43.123383,10.915962 43.107414,10.665892 43.055508,10.041893 
	C43.019569,9.667966 43.086430,9.536846 43.144127,9.492905 
	C43.368042,9.554640 43.534256,9.660316 43.924294,9.958858 
	C43.984001,10.448910 43.819889,10.746098 43.397568,11.104659 
z"/>
<path fill="#C8615E" opacity="1.000000" stroke="none" 
	d="
M126.199654,9.314174 
	C126.315437,9.499119 126.126274,9.739110 125.494598,10.120028 
	C125.052086,10.260953 125.022110,10.213297 124.994568,10.191610 
	C125.276245,9.903022 125.585472,9.636120 126.199654,9.314174 
z"/>
<path fill="#C8615E" opacity="1.000000" stroke="none" 
	d="
M124.287621,10.903765 
	C124.190048,10.545530 124.434288,10.360617 124.997139,10.347459 
	C124.999222,10.589231 124.770454,10.775187 124.287621,10.903765 
z"/>
<path fill="#C8615E" opacity="1.000000" stroke="none" 
	d="
M126.694481,10.540294 
	C126.755554,10.260166 126.968079,10.202374 127.510155,10.134542 
	C127.508453,10.337212 127.177193,10.549920 126.694481,10.540294 
z"/>
<path fill="#EA6A28" opacity="1.000000" stroke="none" 
	d="
M147.967651,26.712738 
	C147.750153,26.891636 147.501495,26.760168 147.171097,26.377277 
	C147.414429,26.039860 147.696793,26.132034 147.967651,26.712738 
z"/>
<path fill="#EA6A28" opacity="1.000000" stroke="none" 
	d="
M146.008163,25.667356 
	C145.773987,25.872272 145.512299,25.741581 145.169861,25.336552 
	C145.341187,25.242315 145.638382,25.332161 146.008163,25.667356 
z"/>
<path fill="#F9B9B8" opacity="1.000000" stroke="none" 
	d="
M140.957092,15.763733 
	C140.530258,15.808434 140.200378,15.609736 139.658417,15.201233 
	C139.750427,14.881701 140.054504,14.771972 140.806091,14.849045 
	C141.187057,15.197343 141.120529,15.358838 140.957092,15.763733 
z"/>
<path fill="#EA6A28" opacity="1.000000" stroke="none" 
	d="
M137.963348,22.727877 
	C137.855606,22.974342 137.673843,22.980202 137.219391,22.980915 
	C137.260895,22.812937 137.575134,22.650105 137.963348,22.727877 
z"/>
<path fill="#EB6928" opacity="1.000000" stroke="none" 
	d="
M16.048637,62.848789 
	C15.870897,64.062866 15.693156,65.276947 15.372274,67.468758 
	C12.527962,64.850555 9.794601,63.178288 8.262185,60.748589 
	C5.052310,55.659203 -0.010037,50.700821 4.884643,43.690128 
	C5.551007,43.867329 6.527157,44.126911 6.729709,44.180771 
	C7.854710,41.534657 8.817864,39.269222 9.781018,37.003784 
	C10.258679,37.123367 10.736341,37.242947 11.214001,37.362526 
	C11.367828,38.479000 11.521656,39.595474 11.829212,41.297455 
	C12.318687,47.265434 12.654433,52.647900 13.035490,58.355835 
	C14.070080,60.070465 15.059359,61.459629 16.048637,62.848789 
z"/>
<path fill="#EA6A1F" opacity="1.000000" stroke="none" 
	d="
M145.008926,45.017132 
	C144.777985,43.106644 144.547028,41.196159 144.431778,40.242779 
	C145.873627,37.635609 146.936768,35.713245 148.002686,33.397243 
	C149.070633,33.001926 150.135773,33.000252 151.933014,32.999523 
	C153.108444,32.999935 153.551773,32.999401 153.995117,32.998871 
	C153.995117,32.998867 154.000000,33.000153 154.050339,33.316772 
	C154.733994,34.081814 155.367325,34.530231 156.000641,34.978645 
	C156.309433,35.382790 156.618225,35.786934 156.567474,36.497536 
	C154.791931,36.996876 153.375946,37.189754 151.733688,37.413456 
	C151.826767,39.494995 151.905167,41.248066 151.954636,43.405312 
	C152.690277,46.184631 153.454849,48.559780 153.923996,50.874142 
	C153.080215,51.548798 152.531845,52.284245 151.761169,53.133320 
	C151.332062,53.506248 151.125214,53.765549 150.560364,54.020187 
	C149.728027,54.066261 149.253723,54.116993 148.576782,54.405083 
	C147.906296,56.082287 147.438446,57.522133 146.699677,59.132233 
	C145.624954,59.510796 144.821136,59.719105 144.090500,59.657341 
	C143.454880,58.920670 142.746078,58.454067 142.032257,57.614296 
	C142.878845,55.679913 143.730453,54.118698 144.582062,52.557484 
	C145.163834,52.686623 145.745605,52.815765 146.327393,52.944908 
	C145.887894,50.302315 145.448410,47.659725 145.008926,45.017132 
z"/>
<path fill="#FFDC43" opacity="1.000000" stroke="none" 
	d="
M145.005249,45.008865 
	C145.448410,47.659725 145.887894,50.302315 146.327393,52.944908 
	C145.745605,52.815765 145.163834,52.686623 144.582062,52.557484 
	C143.730453,54.118698 142.878845,55.679913 141.798431,57.807484 
	C141.707275,59.554638 141.844925,60.735435 141.982590,61.916233 
	C139.975693,61.655087 137.968781,61.393940 135.115112,61.085205 
	C131.544312,61.016560 128.820267,60.995506 126.096222,60.974449 
	C126.096222,60.974449 126.004478,60.526024 126.186478,60.245052 
	C126.368484,59.964081 126.761185,59.897099 127.102806,59.651123 
	C127.221054,52.630692 126.997688,45.856236 126.587311,39.059063 
	C126.400291,39.036350 126.025284,38.999897 126.025284,38.999897 
	C126.011208,38.832943 125.997124,38.665989 126.348236,38.245277 
	C127.802780,37.715496 128.892120,37.439476 129.981476,37.163456 
	C130.317719,37.558029 130.653946,37.952602 130.771866,38.665077 
	C130.553543,38.982975 130.128708,39.041607 129.810303,39.316299 
	C129.716675,46.363205 129.941452,53.135418 130.537323,59.928520 
	C133.624634,60.126904 135.069046,59.017429 134.764816,56.138462 
	C134.978287,55.864712 135.191757,55.590961 135.668762,55.609158 
	C136.209091,57.266621 136.485870,58.632137 136.762665,59.997658 
	C137.426971,59.938297 138.091293,59.878941 138.755600,59.819580 
	C138.612930,52.935024 140.100616,46.079651 138.009155,39.160221 
	C138.635117,38.461678 139.261063,37.763134 139.887024,37.064590 
	C140.671875,37.842873 141.932220,38.515160 142.134628,39.423264 
	C142.472366,40.938446 142.133209,42.604519 142.107162,44.949532 
	C143.664688,47.871017 144.490631,47.083008 145.011902,45.009995 
	C145.011902,45.009995 145.001587,45.000599 145.005249,45.008865 
z"/>
<path fill="#E26F15" opacity="1.000000" stroke="none" 
	d="
M74.913063,37.151001 
	C75.792740,36.918159 76.672424,36.685318 77.521103,36.911888 
	C81.087852,45.659161 81.612289,53.885334 76.995605,62.008320 
	C76.236618,63.627460 75.477623,65.246605 74.378387,66.749886 
	C74.038132,66.634026 74.005127,66.271095 74.316803,65.952454 
	C75.074623,59.928185 75.520767,54.222557 75.985283,48.281910 
	C74.925179,48.171661 73.465591,48.019871 72.041733,47.553158 
	C72.686417,46.174820 73.295387,45.111408 74.094467,44.261116 
	C74.440155,44.525158 74.598099,44.621639 74.750633,44.613720 
	C74.892639,44.606346 75.151657,44.484589 75.149925,44.418697 
	C75.086128,41.995735 74.997932,39.573410 74.913063,37.151001 
z"/>
<path fill="#FBC336" opacity="1.000000" stroke="none" 
	d="
M113.355675,37.112270 
	C115.284981,37.112270 117.214287,37.112270 117.994102,37.112270 
	C117.994102,43.953663 117.926537,50.382416 118.088722,56.805370 
	C118.106819,57.522213 119.430214,58.206097 120.148270,58.905266 
	C121.228775,57.522377 122.309280,56.139492 123.617966,54.831211 
	C124.201462,56.623646 124.556778,58.341476 124.912094,60.059311 
	C121.904976,63.860542 118.002045,63.298016 113.694611,61.725197 
	C116.226227,53.136440 115.979561,45.123150 113.355675,37.112270 
z"/>
<path fill="#F8BC2D" opacity="1.000000" stroke="none" 
	d="
M100.855118,36.979614 
	C103.051079,37.088192 105.247040,37.196770 107.731918,37.847672 
	C108.024811,38.570862 108.028786,38.751732 107.618835,38.980804 
	C102.600952,40.641056 105.979416,44.444378 104.858543,47.275383 
	C104.729042,48.646793 104.743492,49.794914 104.878624,51.171757 
	C105.211372,51.665421 105.423439,51.930363 105.643585,52.506844 
	C105.713737,53.438236 105.775810,54.058086 105.600616,54.982574 
	C105.663254,56.701698 105.963142,58.116184 106.263039,59.530674 
	C107.533096,59.060333 108.803162,58.589993 110.310974,58.023155 
	C110.705238,57.857632 110.861748,57.788605 111.301849,57.781284 
	C111.776215,57.875271 111.966980,57.907551 112.153854,58.341621 
	C112.056175,59.807697 111.962402,60.871979 111.868622,61.936264 
	C108.150177,61.760880 104.431732,61.585495 100.673447,60.838795 
	C101.093872,59.624702 101.974998,58.965076 101.950043,58.341728 
	C101.664795,51.217827 101.241539,44.099457 100.855118,36.979614 
z"/>
<path fill="#EF6826" opacity="1.000000" stroke="none" 
	d="
M55.464054,61.123627 
	C54.745609,60.607418 54.027168,60.091213 53.148628,58.811829 
	C52.690659,52.709259 52.392784,47.369865 52.222099,41.727802 
	C55.089905,38.310654 56.954067,38.948978 58.120106,42.750610 
	C58.456333,43.846817 58.887886,44.913784 59.209618,46.410980 
	C59.205997,48.225590 59.268494,49.623383 59.236904,51.404182 
	C57.916561,54.899338 56.690308,58.011482 55.464054,61.123627 
z"/>
<path fill="#EA6A1F" opacity="1.000000" stroke="none" 
	d="
M160.101028,50.001556 
	C165.101151,52.337868 162.109283,56.171261 161.106888,58.819073 
	C160.064072,61.573727 157.311676,63.681190 155.194717,66.205307 
	C153.028229,64.986015 150.085373,63.329807 145.840851,60.941025 
	C146.892181,65.105392 147.521561,67.598412 148.150955,70.091431 
	C147.495026,70.296227 146.839111,70.501015 146.183197,70.705811 
	C145.462448,68.133530 144.741714,65.561249 144.026703,62.522400 
	C144.032455,62.055828 143.979355,61.920773 144.316101,61.827618 
	C145.761002,61.429043 146.869171,61.123623 148.185730,60.848995 
	C148.394150,60.879787 148.812546,60.929619 149.175201,60.955215 
	C150.022537,60.985714 150.507217,60.990608 151.219116,60.911179 
	C151.724243,60.633892 151.907913,60.374283 152.312927,60.037815 
	C153.048401,59.999939 153.468338,59.972263 154.147003,59.797043 
	C154.609711,59.105717 154.813705,58.561935 155.330933,57.961372 
	C156.436874,56.596298 157.229584,55.288002 158.179657,54.246765 
	C158.875641,54.480583 159.875687,54.493179 159.884232,54.407269 
	C160.029419,52.945942 160.051666,51.472404 160.101028,50.001556 
z"/>
<path fill="#E07112" opacity="1.000000" stroke="none" 
	d="
M25.782936,60.932926 
	C25.018599,62.830750 24.254261,64.728577 23.202114,66.278343 
	C23.272123,59.900513 23.629942,53.870747 23.947811,47.539677 
	C23.543636,46.766262 23.179409,46.294144 22.882290,45.389820 
	C22.885683,42.342785 22.821970,39.727955 23.157814,37.159878 
	C24.264530,40.029297 24.971684,42.851967 25.669008,45.635406 
	C26.110186,43.829613 26.564014,41.972031 27.309250,40.395233 
	C27.697948,45.492390 28.005266,50.318146 27.790754,55.120594 
	C27.703053,57.084015 26.486134,58.996998 25.782936,60.932926 
z"/>
<path fill="#EB6928" opacity="1.000000" stroke="none" 
	d="
M27.017843,40.114452 
	C26.564014,41.972031 26.110186,43.829613 25.669008,45.635406 
	C24.971684,42.851967 24.264530,40.029297 22.827902,37.158257 
	C21.034748,36.848251 19.971069,36.586620 18.818260,36.058243 
	C18.175520,35.899620 17.621908,36.007744 17.087145,36.145508 
	C17.105995,36.175144 17.106531,36.245392 17.106531,36.245392 
	C16.216028,35.980282 15.325523,35.715172 13.892588,35.288574 
	C17.436714,30.462786 21.848480,28.817369 27.575630,28.998283 
	C27.997469,28.997467 28.000057,29.000057 28.000504,29.438869 
	C27.999910,32.188419 27.998875,34.499157 27.715698,36.957504 
	C27.294985,38.108227 27.156414,39.111340 27.017843,40.114452 
z"/>
<path fill="#FDD23A" opacity="1.000000" stroke="none" 
	d="
M59.275734,45.994156 
	C58.887886,44.913784 58.456333,43.846817 58.120106,42.750610 
	C56.954067,38.948978 55.089905,38.310654 52.042297,42.098991 
	C51.924694,48.176117 52.114082,53.579384 52.303474,58.982647 
	C51.268864,58.507824 50.234249,58.033001 49.130814,56.820564 
	C48.951019,52.718033 48.840050,49.353123 48.729080,45.988213 
	C48.840454,45.170628 48.687622,44.167233 49.109196,43.567806 
	C50.881721,41.047474 52.825916,38.647877 54.707272,36.204086 
	C56.782394,38.024548 58.885567,39.814560 60.914936,41.684673 
	C61.497025,42.221085 61.865788,42.988987 62.593285,44.138985 
	C61.661385,45.082867 60.468559,45.538513 59.275734,45.994156 
z"/>
<path fill="#FED144" opacity="1.000000" stroke="none" 
	d="
M23.987761,47.840977 
	C23.629942,53.870747 23.272123,59.900513 22.861938,66.382187 
	C22.809576,66.834091 22.854744,66.926796 22.625019,67.002274 
	C22.127716,67.355789 21.860138,67.633842 21.592560,67.911880 
	C20.810495,67.950569 20.028433,67.989250 19.246370,68.027939 
	C19.545788,67.664444 19.845205,67.300941 20.144623,66.937447 
	C19.009409,65.626457 17.874195,64.315468 16.393808,62.926632 
	C15.059359,61.459629 14.070080,60.070465 13.083925,58.041641 
	C13.704607,56.938114 14.322164,56.474251 15.054700,56.287125 
	C15.677036,57.407986 16.184393,58.252106 16.973145,59.373756 
	C18.435837,59.171253 20.666777,58.589664 20.631718,58.227322 
	C20.360916,55.428459 19.651623,52.672020 19.101788,49.897118 
	C19.125359,49.891800 19.156548,49.854301 19.176783,49.483047 
	C20.793932,48.688190 22.390846,48.264584 23.987761,47.840977 
z"/>
<path fill="#FED235" opacity="1.000000" stroke="none" 
	d="
M59.209618,46.410980 
	C60.468559,45.538513 61.661385,45.082867 62.909233,44.281067 
	C63.274021,43.468189 63.583782,43.001465 64.274826,42.410976 
	C65.166870,42.544750 65.677628,42.802292 66.177292,43.512753 
	C65.882957,49.679771 65.200752,55.487759 69.703674,60.034073 
	C69.286125,60.637615 69.108963,61.226021 68.698334,61.850929 
	C68.464867,61.887428 68.012314,62.023659 68.012314,62.023659 
	C66.913910,60.463535 65.861450,58.868210 64.702156,57.354725 
	C63.817818,56.200188 62.798058,55.149376 61.435314,53.780472 
	C60.465057,52.679405 59.898026,51.850288 59.330994,51.021172 
	C59.268494,49.623383 59.205997,48.225590 59.209618,46.410980 
z"/>
<path fill="#FDD335" opacity="1.000000" stroke="none" 
	d="
M77.307465,62.088120 
	C81.612289,53.885334 81.087852,45.659161 77.734085,37.139374 
	C79.664223,36.966812 81.350388,37.026184 83.480484,37.381432 
	C83.895439,38.071529 83.866455,38.465744 83.521286,39.102787 
	C82.879517,45.891090 82.553940,52.436569 82.336975,59.223251 
	C82.945908,59.947594 83.446220,60.430740 83.946541,60.913883 
	C81.837471,61.331894 79.728401,61.749905 77.307465,62.088120 
z"/>
<path fill="#FED936" opacity="1.000000" stroke="none" 
	d="
M27.309250,40.395233 
	C27.156414,39.111340 27.294985,38.108227 28.049282,37.005844 
	C29.112661,36.879906 29.560316,36.853241 30.007969,36.826576 
	C30.306034,37.074211 30.604099,37.321850 30.977934,38.047852 
	C31.053703,38.526215 30.987986,38.968693 30.701612,39.277039 
	C30.469534,46.055416 30.523827,52.525448 30.732929,59.257729 
	C31.267057,59.987499 31.646378,60.455029 32.025696,60.922554 
	C30.021910,61.099781 28.018126,61.277008 25.898638,61.193581 
	C26.486134,58.996998 27.703053,57.084015 27.790754,55.120594 
	C28.005266,50.318146 27.697948,45.492390 27.309250,40.395233 
z"/>
<path fill="#FBCD34" opacity="1.000000" stroke="none" 
	d="
M44.140770,60.960701 
	C42.946747,58.315907 41.960026,55.546486 40.475147,53.076546 
	C39.679214,51.752598 38.026230,50.943893 36.385288,49.480278 
	C36.015068,47.029850 36.019562,45.001816 36.346180,42.931652 
	C37.129513,42.229111 37.590721,41.568703 38.268253,40.968475 
	C38.484581,41.028660 38.929340,41.090858 38.957962,41.067509 
	C38.986584,41.044159 38.915016,41.025822 38.926224,41.331100 
	C39.275085,42.102291 39.612740,42.568203 39.974525,43.016335 
	C39.998650,42.998554 39.945480,43.028206 39.926735,43.335892 
	C40.246849,44.112736 40.585716,44.581894 40.962093,45.027046 
	C40.999607,45.003036 40.917900,45.037773 40.872086,45.393623 
	C40.914848,46.457977 41.003429,47.166473 41.225510,48.151184 
	C42.609543,52.650837 43.860077,56.874283 45.110615,61.097725 
	C45.110615,61.097725 45.076920,61.060432 44.838455,61.043060 
	C44.599991,61.025688 44.140770,60.960701 44.140770,60.960701 
z"/>
<path fill="#E06F15" opacity="1.000000" stroke="none" 
	d="
M95.245468,60.762505 
	C92.714027,60.866135 90.182579,60.969765 87.384956,60.634098 
	C87.782051,56.717300 88.445320,53.239807 89.475380,49.812584 
	C91.643265,53.496075 93.444366,57.129292 95.245468,60.762505 
M91.723824,59.526669 
	C91.989494,59.273903 92.255157,59.021137 92.520821,58.768372 
	C92.416107,58.658360 92.311394,58.548347 92.206680,58.438335 
	C91.941338,58.691074 91.675987,58.943817 91.723824,59.526669 
z"/>
<path fill="#D77109" opacity="1.000000" stroke="none" 
	d="
M89.108597,49.762310 
	C88.445320,53.239807 87.782051,56.717300 87.059448,60.596245 
	C86.236740,60.990616 85.473373,60.983536 84.328270,60.945168 
	C83.446220,60.430740 82.945908,59.947594 82.716873,59.215656 
	C83.821335,58.528816 85.375931,58.095913 85.379097,57.651951 
	C85.424019,51.350586 87.400764,44.859623 83.837479,38.859962 
	C83.866455,38.465744 83.895439,38.071529 83.901436,37.382915 
	C84.735123,37.317688 85.591797,37.546852 86.745407,38.289276 
	C87.440147,40.516899 87.837952,42.231262 88.196510,44.321289 
	C88.474365,46.385410 88.791481,48.073860 89.108597,49.762310 
z"/>
<path fill="#FED53A" opacity="1.000000" stroke="none" 
	d="
M89.475372,49.812584 
	C88.791481,48.073860 88.474365,46.385410 88.512337,44.250816 
	C89.252762,42.857159 89.638100,41.909634 90.023438,40.962105 
	C90.973099,43.055416 91.922752,45.148727 92.994064,47.890327 
	C94.602234,50.731972 96.088737,52.925320 97.616211,55.437683 
	C97.629227,56.183918 97.601280,56.611130 97.442123,57.207401 
	C97.168175,57.641186 97.120911,57.922066 97.211380,58.505592 
	C97.469009,59.529636 97.684372,60.267197 97.899734,61.004761 
	C97.530258,61.260616 97.160774,61.516468 96.405502,61.595009 
	C95.698380,61.258175 95.377045,61.098652 95.055717,60.939133 
	C95.055717,60.939133 95.189323,60.895863 95.217392,60.829185 
	C93.444366,57.129292 91.643265,53.496075 89.475372,49.812584 
z"/>
<path fill="#DD6A0F" opacity="1.000000" stroke="none" 
	d="
M48.394657,45.878460 
	C48.840050,49.353123 48.951019,52.718033 49.011154,56.538647 
	C48.493530,56.371220 48.026737,55.748085 47.332359,54.821144 
	C47.040928,56.881073 46.784763,58.691696 46.241879,60.286942 
	C45.961670,54.655548 45.840519,49.235191 46.024738,43.825237 
	C46.127796,40.798782 45.054131,39.526356 41.922005,39.754349 
	C41.535522,38.998421 41.268364,38.499744 41.001205,38.001068 
	C43.325150,38.001068 45.649097,38.001068 47.690830,38.001068 
	C47.797836,40.251114 47.929035,43.009911 48.394657,45.878460 
z"/>
<path fill="#D9680D" opacity="1.000000" stroke="none" 
	d="
M98.282600,61.003159 
	C97.684372,60.267197 97.469009,59.529636 97.354080,58.335602 
	C97.639381,57.619305 97.678986,57.339043 97.573334,57.038345 
	C97.601280,56.611130 97.629227,56.183918 97.740387,54.970741 
	C97.888977,48.737072 97.954353,43.289368 98.019722,37.841660 
	C98.759689,37.559120 99.499664,37.276581 100.547379,36.986824 
	C101.241539,44.099457 101.664795,51.217827 101.950043,58.341728 
	C101.974998,58.965076 101.093872,59.624702 100.413498,60.564224 
	C99.684074,60.907837 99.174774,60.954700 98.282600,61.003159 
M98.992393,43.070126 
	C98.992393,48.139988 98.992393,53.209846 98.992393,58.279709 
	C99.614693,58.268707 100.237000,58.257702 100.859299,58.246700 
	C100.859299,52.724464 100.859299,47.202232 100.859299,41.679996 
	C100.247185,41.863976 99.635071,42.047955 98.992393,43.070126 
z"/>
<path fill="#FBB42A" opacity="1.000000" stroke="none" 
	d="
M42.041332,40.011600 
	C45.054131,39.526356 46.127796,40.798782 46.024738,43.825237 
	C45.840519,49.235191 45.961670,54.655548 45.973724,60.541168 
	C45.992298,61.010784 45.552773,61.076771 45.331696,61.087250 
	C43.860077,56.874283 42.609543,52.650837 41.471073,48.200527 
	C41.750370,47.975178 41.917606,47.976700 42.359959,47.719215 
	C42.437160,44.977337 42.239246,42.494469 42.041332,40.011600 
z"/>
<path fill="#FDE434" opacity="1.000000" stroke="none" 
	d="
M159.938660,49.700474 
	C160.051666,51.472404 160.029419,52.945942 159.884232,54.407269 
	C159.875687,54.493179 158.875641,54.480583 158.071045,53.942661 
	C156.609863,52.559311 155.414642,51.747120 154.219421,50.934929 
	C153.454849,48.559780 152.690277,46.184631 152.192688,43.500050 
	C152.897858,43.448620 153.336075,43.706623 153.774277,43.964622 
	C155.774948,45.776215 157.775635,47.587803 159.938660,49.700474 
z"/>
<path fill="#FDCF31" opacity="1.000000" stroke="none" 
	d="
M14.939721,56.010384 
	C14.322164,56.474251 13.704607,56.938114 13.038614,57.716171 
	C12.654433,52.647900 12.318687,47.265434 12.073622,41.479729 
	C12.164303,41.076488 12.575578,41.023766 12.796190,41.234848 
	C13.567914,41.629501 14.119025,41.813068 14.682936,42.403698 
	C14.777064,47.210632 14.858393,51.610512 14.939721,56.010384 
z"/>
<path fill="#D8660C" opacity="1.000000" stroke="none" 
	d="
M112.245224,61.937820 
	C111.962402,60.871979 112.056175,59.807697 112.397324,58.060974 
	C113.091042,53.361324 113.371941,49.316147 114.044624,45.337200 
	C114.460243,42.878796 112.971077,42.078865 111.293785,40.763397 
	C110.823418,39.506615 110.432281,38.621162 110.041153,37.735710 
	C110.908127,37.504471 111.775108,37.273232 112.998878,37.077133 
	C115.979561,45.123150 116.226227,53.136440 113.376488,61.518143 
	C113.122581,61.902077 112.872200,61.920723 112.245224,61.937820 
z"/>
<path fill="#FECD41" opacity="1.000000" stroke="none" 
	d="
M14.670138,41.996635 
	C14.119025,41.813068 13.567914,41.629501 13.000846,41.201721 
	C14.211140,39.543819 15.437388,38.130135 16.885084,36.480919 
	C17.106531,36.245392 17.105995,36.175144 17.391376,36.198303 
	C18.086967,36.255974 18.497177,36.290482 18.907389,36.324993 
	C19.971069,36.586620 21.034748,36.848251 22.428341,37.111504 
	C22.821970,39.727955 22.885683,42.342785 22.667179,45.207520 
	C21.974247,44.602127 21.563532,43.746834 21.092533,42.557701 
	C20.172949,41.131500 19.313648,40.039146 18.211266,38.637775 
	C16.749659,40.024151 15.709899,41.010395 14.670138,41.996635 
z"/>
<path fill="#FCCF3C" opacity="1.000000" stroke="none" 
	d="
M153.818542,43.586082 
	C153.336075,43.706623 152.897858,43.448620 152.221619,43.095879 
	C151.905167,41.248066 151.826767,39.494995 151.733688,37.413456 
	C153.375946,37.189754 154.791931,36.996876 156.601639,36.760418 
	C162.080566,37.751579 159.443542,41.623970 159.573349,44.537407 
	C158.569855,42.695950 157.566376,40.854492 155.796600,37.606876 
	C154.811676,40.459454 154.337234,41.833496 153.818542,43.586082 
z"/>
<path fill="#D16305" opacity="1.000000" stroke="none" 
	d="
M125.179832,60.053864 
	C124.556778,58.341476 124.201462,56.623646 123.799484,54.532967 
	C124.499535,52.900555 125.774483,51.687569 125.890442,50.372395 
	C126.195213,46.915726 125.995483,43.414577 126.011009,39.465523 
	C126.025284,38.999897 126.400291,39.036350 126.671646,39.515743 
	C126.882401,46.629124 126.821793,53.263111 126.761185,59.897099 
	C126.761185,59.897099 126.368484,59.964081 126.175629,60.016457 
	C125.804375,60.062027 125.625969,60.055222 125.179832,60.053864 
z"/>
<path fill="#DA740C" opacity="1.000000" stroke="none" 
	d="
M52.474350,58.982857 
	C52.114082,53.579384 51.924694,48.176117 51.915108,42.401665 
	C52.392784,47.369865 52.690659,52.709259 52.987736,58.513481 
	C52.986938,58.978310 52.645222,58.983067 52.474350,58.982857 
z"/>
<path fill="#FDD23A" opacity="1.000000" stroke="none" 
	d="
M59.236900,51.404182 
	C59.898026,51.850288 60.465057,52.679405 61.066612,53.860592 
	C61.081558,57.923653 59.539894,60.531918 55.627792,61.332542 
	C56.690308,58.011482 57.916561,54.899338 59.236900,51.404182 
z"/>
<path fill="#FBC237" opacity="1.000000" stroke="none" 
	d="
M126.152573,61.358826 
	C128.820267,60.995506 131.544312,61.016560 134.733017,61.093903 
	C132.383774,64.111778 129.323868,63.344643 126.152573,61.358826 
z"/>
<path fill="#FFB445" opacity="1.000000" stroke="none" 
	d="
M36.024055,42.973785 
	C36.019562,45.001816 36.015068,47.029850 36.004112,49.488159 
	C36.008892,52.311275 36.020130,54.704113 35.802963,57.555618 
	C35.574558,58.014282 35.094658,58.037552 35.054352,57.567772 
	C35.063225,51.737259 35.112400,46.376530 35.342094,41.027664 
	C35.522610,41.039536 35.882645,41.075409 35.915482,41.390671 
	C35.973564,42.128551 35.998810,42.551170 36.024055,42.973785 
z"/>
<path fill="#FDCE48" opacity="1.000000" stroke="none" 
	d="
M142.326782,61.966995 
	C141.844925,60.735435 141.707275,59.554638 141.803467,58.180653 
	C142.746078,58.454067 143.454880,58.920670 144.083069,59.990082 
	C143.994751,61.035515 143.987061,61.478146 143.979355,61.920773 
	C143.979355,61.920773 144.032455,62.055828 144.041046,62.128426 
	C143.590073,62.139931 143.130508,62.078842 142.326782,61.966995 
z"/>
<path fill="#DB6C0F" opacity="1.000000" stroke="none" 
	d="
M68.171806,62.322487 
	C68.012314,62.023659 68.464867,61.887428 69.068138,61.948639 
	C70.426460,61.964104 71.181503,61.918362 72.229034,62.072906 
	C72.355087,63.542423 72.188644,64.811653 72.022209,66.080879 
	C70.791901,64.927696 69.561600,63.774506 68.171806,62.322487 
z"/>
<path fill="#FBDD3F" opacity="1.000000" stroke="none" 
	d="
M35.094658,58.037552 
	C35.094658,58.037552 35.574558,58.014282 35.814777,58.000992 
	C36.556232,58.755505 37.057465,59.523308 37.839470,60.721195 
	C36.506874,60.838097 35.634777,60.914600 34.406780,60.672791 
	C34.077450,59.945034 34.104019,59.535587 34.117535,59.101646 
	C34.104485,59.077156 34.056217,59.052429 34.303162,58.978443 
	C34.731621,58.615490 34.913139,58.326519 35.094658,58.037552 
z"/>
<path fill="#F5A426" opacity="1.000000" stroke="none" 
	d="
M72.177238,66.341125 
	C72.188644,64.811653 72.355087,63.542423 72.258812,61.872097 
	C71.996101,61.471001 72.022713,61.064781 72.403076,61.121925 
	C73.190666,62.876415 73.597893,64.573753 74.005127,66.271095 
	C74.005127,66.271095 74.038132,66.634026 74.040970,66.816177 
	C73.473289,66.866005 72.902779,66.733688 72.177238,66.341125 
z"/>
<path fill="#D46906" opacity="1.000000" stroke="none" 
	d="
M34.130585,59.126141 
	C34.104019,59.535587 34.077450,59.945034 34.070824,60.661659 
	C33.631180,60.973591 33.171589,60.978340 32.368851,60.952820 
	C31.646378,60.455029 31.267057,59.987499 31.182674,59.263958 
	C32.361935,59.047344 33.246258,59.086742 34.130585,59.126141 
z"/>
<path fill="#EB6928" opacity="1.000000" stroke="none" 
	d="
M153.965469,32.692520 
	C153.551773,32.999401 153.108444,32.999935 152.332550,32.999474 
	C152.082642,32.246464 152.165298,31.494452 152.352036,29.795115 
	C153.199600,31.181711 153.567703,31.783937 153.965469,32.692520 
z"/>
<path fill="#EB6928" opacity="1.000000" stroke="none" 
	d="
M155.949203,34.666363 
	C155.367325,34.530231 154.733994,34.081814 154.051086,33.319145 
	C154.633591,33.454624 155.265671,33.904354 155.949203,34.666363 
z"/>
<path fill="#E07112" opacity="1.000000" stroke="none" 
	d="
M21.880856,67.844200 
	C21.860138,67.633842 22.127716,67.355789 22.676266,67.007965 
	C22.694540,67.217628 22.431847,67.497070 21.880856,67.844200 
z"/>
<path fill="#E06F15" opacity="1.000000" stroke="none" 
	d="
M95.196640,61.180649 
	C95.377045,61.098652 95.698380,61.258175 96.178604,61.650650 
	C96.004181,61.729797 95.670868,61.575981 95.196640,61.180649 
z"/>
<path fill="#FBB42A" opacity="1.000000" stroke="none" 
	d="
M44.194324,61.126671 
	C44.140770,60.960701 44.599991,61.025688 44.828667,61.066208 
	C44.787525,61.168697 44.517700,61.230667 44.194324,61.126671 
z"/>
<path fill="#8A898C" opacity="1.000000" stroke="none" 
	d="
M128.281448,84.520691 
	C129.322647,85.403137 130.363861,86.285583 131.715424,87.431084 
	C130.721786,87.801544 130.024872,88.061378 128.852127,88.780708 
	C127.938164,89.161560 127.500023,89.082916 127.061890,89.004280 
	C127.065117,87.933800 127.068352,86.863312 127.385490,85.280952 
	C127.893417,84.686279 128.087433,84.603485 128.281448,84.520691 
z"/>
<path fill="#B93740" opacity="1.000000" stroke="none" 
	d="
M101.018219,93.918518 
	C100.963295,94.917488 100.911110,95.555557 100.797127,96.949333 
	C100.035835,94.556969 99.498863,92.869530 98.961891,91.182091 
	C99.343811,91.040894 99.725731,90.899696 100.107643,90.758499 
	C100.412086,91.691536 100.716530,92.624573 101.018219,93.918518 
z"/>
<path fill="#605C5B" opacity="1.000000" stroke="none" 
	d="
M126.677063,89.076897 
	C127.500023,89.082916 127.938164,89.161560 128.691269,89.121094 
	C128.261017,89.687256 127.515800,90.372520 126.770584,91.057785 
	C126.315582,90.419579 125.860580,89.781364 125.405571,89.143158 
	C125.541046,89.111725 125.677116,89.052940 125.811829,89.055931 
	C125.972588,89.059494 126.132156,89.115967 126.677063,89.076897 
z"/>
<path fill="#B0414C" opacity="1.000000" stroke="none" 
	d="
M107.965752,95.963013 
	C108.162354,95.978821 108.358963,95.994629 108.850143,96.038391 
	C107.580322,96.253632 106.015923,96.440918 104.567802,96.274139 
	C105.030411,95.618576 105.376747,95.317078 106.038437,95.014771 
	C106.891121,95.330307 107.428436,95.646660 107.965752,95.963013 
z"/>
<path fill="#605C5B" opacity="1.000000" stroke="none" 
	d="
M128.199066,84.501740 
	C128.087433,84.603485 127.893417,84.686279 127.402664,84.878906 
	C126.440231,84.773788 125.774536,84.558830 125.108833,84.343872 
	C125.865906,83.981865 126.622986,83.619850 127.799789,83.582291 
	C128.138306,84.129944 128.057098,84.353134 127.975891,84.576324 
	C127.975891,84.576324 128.116699,84.482780 128.199066,84.501740 
z"/>
<path fill="#E44A56" opacity="1.000000" stroke="none" 
	d="
M107.972099,95.727493 
	C107.428436,95.646660 106.891121,95.330307 105.894958,94.892960 
	C105.256561,94.589653 105.127533,94.376724 105.049034,94.133163 
	C105.529953,93.764435 106.010872,93.395706 106.842514,93.183746 
	C107.458916,93.900650 107.724617,94.460777 107.990311,95.020905 
	C107.990311,95.020905 107.978447,95.491966 107.972099,95.727493 
z"/>
<path fill="#BBBBBD" opacity="1.000000" stroke="none" 
	d="
M132.252686,89.885910 
	C131.863724,88.930534 131.863724,87.948074 131.863724,86.965622 
	C132.189682,87.000465 132.515625,87.035309 132.841583,87.070152 
	C132.774948,87.999718 132.708313,88.929276 132.252686,89.885910 
z"/>
<path fill="#CCCDCA" opacity="1.000000" stroke="none" 
	d="
M134.272583,86.460846 
	C134.684601,86.900032 134.855560,87.584396 135.026520,88.268768 
	C134.812881,88.320107 134.599228,88.371445 134.385574,88.422783 
	C134.267563,87.850533 134.149536,87.278275 134.272583,86.460846 
z"/>
<path fill="#B64043" opacity="1.000000" stroke="none" 
	d="
M108.217773,94.777077 
	C107.724617,94.460777 107.458916,93.900650 107.112473,93.040306 
	C107.031731,92.740089 107.075836,92.785866 107.058655,92.758789 
	C107.509392,93.332222 107.977318,93.932739 108.217773,94.777077 
z"/>
<path fill="#C8C5C8" opacity="1.000000" stroke="none" 
	d="
M128.376480,84.529907 
	C128.057098,84.353134 128.138306,84.129944 128.190308,83.551704 
	C129.018463,83.196655 129.875793,83.196655 130.733139,83.196655 
	C130.767517,83.447464 130.801895,83.698273 130.836273,83.949081 
	C130.149872,84.127220 129.463470,84.305351 128.376480,84.529907 
z"/>
<path fill="#FF9CA4" opacity="1.000000" stroke="none" 
	d="
M104.724274,94.136208 
	C105.127533,94.376724 105.256561,94.589653 105.579605,94.893776 
	C105.376747,95.317078 105.030411,95.618576 104.429932,95.938522 
	C104.250359,95.351067 104.324928,94.745155 104.724274,94.136208 
z"/>
<path fill="#DD3A49" opacity="1.000000" stroke="none" 
	d="
M59.044659,96.943176 
	C58.311089,96.936638 57.577518,96.930092 56.437195,96.450775 
	C56.037350,94.052795 56.044254,92.127579 56.051155,90.202370 
	C56.673050,90.149742 57.294941,90.097107 58.281258,90.391426 
	C59.026203,91.442299 59.406719,92.146217 60.095512,92.893639 
	C60.610703,92.953491 60.817612,92.969849 61.024521,92.986214 
	C61.024521,92.986214 61.009670,92.997787 61.017860,93.008270 
	C61.019913,93.450554 61.013767,93.882355 61.019279,94.636826 
	C61.030941,94.959511 61.013306,94.987297 60.752609,94.901108 
	C60.009495,95.524330 59.527077,96.233757 59.044659,96.943176 
z"/>
<path fill="#B6665E" opacity="1.000000" stroke="none" 
	d="
M54.838959,96.049644 
	C54.838959,96.049644 54.423565,95.979218 54.219612,95.927353 
	C53.024410,94.488770 52.028885,93.105049 51.051304,91.708755 
	C50.984264,91.612999 51.001080,91.389854 51.069756,91.286079 
	C51.146492,91.170113 51.326946,91.122780 51.723270,90.993088 
	C52.705456,90.954018 53.426624,90.967445 54.553780,91.377151 
	C54.919495,93.198837 54.879227,94.624237 54.838959,96.049644 
z"/>
<path fill="#FFD4D4" opacity="1.000000" stroke="none" 
	d="
M54.942978,96.336945 
	C54.879227,94.624237 54.919495,93.198837 54.912430,91.346848 
	C55.079765,90.628738 55.294437,90.337204 55.780132,90.124023 
	C56.044254,92.127579 56.037350,94.052795 56.072525,96.386169 
	C55.758739,96.737648 55.402866,96.680946 54.942978,96.336945 
z"/>
<path fill="#FCDAD7" opacity="1.000000" stroke="none" 
	d="
M74.746857,89.007263 
	C74.708427,90.110847 74.379532,91.264206 73.582664,92.622375 
	C72.740242,92.218979 72.365807,91.610764 72.296547,90.988747 
	C73.009979,90.657242 73.418228,90.339539 73.826469,90.021828 
	C74.036438,89.700226 74.246407,89.378624 74.746857,89.007263 
z"/>
<path fill="#AE3A45" opacity="1.000000" stroke="none" 
	d="
M73.437462,90.015457 
	C73.418228,90.339539 73.009979,90.657242 71.993179,91.145164 
	C70.761696,91.952225 70.138771,92.589066 69.527832,92.970306 
	C69.558838,92.545563 69.577866,92.376419 69.746658,91.894524 
	C69.913040,91.120094 69.929642,90.658417 69.946243,90.196747 
	C70.980309,90.134193 72.014381,90.071640 73.437462,90.015457 
z"/>
<path fill="#C0393A" opacity="1.000000" stroke="none" 
	d="
M61.004539,92.666016 
	C60.817612,92.969849 60.610703,92.953491 60.150455,92.564041 
	C59.975945,91.526932 60.054771,90.862930 60.133598,90.198921 
	C60.417252,90.914551 60.700905,91.630180 61.004539,92.666016 
z"/>
<path fill="#F7ABAB" opacity="1.000000" stroke="none" 
	d="
M59.738121,90.093285 
	C60.054771,90.862930 59.975945,91.526932 59.842178,92.520538 
	C59.406719,92.146217 59.026203,91.442299 58.590996,90.433846 
	C58.805077,90.082100 59.073856,90.034874 59.738121,90.093285 
z"/>
<path fill="#E28B8E" opacity="1.000000" stroke="none" 
	d="
M69.667648,90.199486 
	C69.929642,90.658417 69.913040,91.120094 69.568878,91.723114 
	C69.241318,91.864456 68.953400,91.462563 68.953400,91.462563 
	C68.953400,91.462563 68.741905,91.215446 68.644966,91.083801 
	C68.828369,90.702187 69.108711,90.452209 69.667648,90.199486 
z"/>
<path fill="#E3575C" opacity="1.000000" stroke="none" 
	d="
M69.515839,93.225906 
	C70.138771,92.589066 70.761696,91.952225 71.687996,91.158966 
	C72.365807,91.610764 72.740242,92.218979 73.392548,92.952843 
	C73.670403,93.078491 73.756042,93.494026 73.434158,93.791786 
	C72.763741,94.715103 72.415199,95.340668 71.723434,95.999771 
	C70.920792,96.029541 70.461388,96.025764 69.934975,95.582535 
	C69.683800,94.582191 69.499634,94.021301 69.350296,93.393784 
	C69.385124,93.327164 69.515839,93.225906 69.515839,93.225906 
z"/>
<path fill="#A53F40" opacity="1.000000" stroke="none" 
	d="
M70.001984,96.021988 
	C70.461388,96.025764 70.920792,96.029541 72.017044,96.007645 
	C73.045059,95.989395 73.436234,95.996834 73.827400,96.004265 
	C72.757133,96.324791 71.686859,96.645309 70.272858,96.691315 
	C69.929115,96.416809 70.001984,96.021980 70.001984,96.021988 
z"/>
<path fill="#FFCFCF" opacity="1.000000" stroke="none" 
	d="
M73.909332,95.654594 
	C73.436234,95.996834 73.045059,95.989395 72.360275,95.974091 
	C72.415199,95.340668 72.763741,94.715103 73.413109,94.002869 
	C73.806381,94.379105 73.898819,94.842010 73.909332,95.654594 
z"/>
<path fill="#E28B8E" opacity="1.000000" stroke="none" 
	d="
M69.934975,95.582535 
	C70.001984,96.021980 69.929115,96.416809 69.909012,96.616592 
	C69.578491,96.434753 69.268082,96.053131 68.895378,95.394356 
	C68.837135,94.913643 68.841179,94.710083 68.935463,94.076393 
	C69.025703,93.646255 69.308266,93.601074 69.307945,93.565796 
	C69.307625,93.530525 69.315468,93.460403 69.315468,93.460403 
	C69.499634,94.021301 69.683800,94.582191 69.934975,95.582535 
z"/>
<path fill="#000000" opacity="1.000000" stroke="none" 
	d="
M68.956993,93.771759 
	C68.088692,93.897255 67.289093,93.897255 66.489502,93.897255 
	C66.478439,93.704552 66.467384,93.511856 66.456322,93.319153 
	C67.013191,93.250290 67.570068,93.181435 68.608002,93.198318 
	C69.089073,93.284058 69.308266,93.601074 69.308266,93.601074 
	C69.308266,93.601074 69.025703,93.646255 68.956993,93.771759 
z"/>
<path fill="#FFDDE3" opacity="1.000000" stroke="none" 
	d="
M69.307945,93.565796 
	C69.308266,93.601074 69.089073,93.284058 68.928841,93.172638 
	C68.646133,92.777046 68.523651,92.492882 68.677292,91.835640 
	C68.953400,91.462563 69.241318,91.864456 69.419098,92.035873 
	C69.577866,92.376419 69.558838,92.545563 69.527832,92.970306 
	C69.515839,93.225906 69.385124,93.327164 69.350296,93.393784 
	C69.315468,93.460403 69.307625,93.530525 69.307945,93.565796 
z"/>
<path fill="#C0393A" opacity="1.000000" stroke="none" 
	d="
M59.379814,96.960480 
	C59.527077,96.233757 60.009495,95.524330 60.752579,94.914291 
	C60.580486,95.668373 60.147728,96.323074 59.379814,96.960480 
z"/>
<path fill="#FAB92D" opacity="1.000000" stroke="none" 
	d="
M97.641838,37.893600 
	C97.954353,43.289368 97.888977,48.737072 97.699417,54.651726 
	C96.088737,52.925320 94.602234,50.731972 93.089348,48.230320 
	C98.683784,48.512871 95.019173,44.287098 95.868729,42.416313 
	C96.509285,41.005745 96.811272,39.441429 97.641838,37.893600 
z"/>
<path fill="#FFD245" opacity="1.000000" stroke="none" 
	d="
M66.188393,43.059830 
	C65.677628,42.802292 65.166870,42.544750 64.401428,42.159805 
	C65.708733,36.751770 69.508522,36.042591 74.547882,37.135315 
	C74.997932,39.573410 75.086128,41.995735 75.149925,44.418697 
	C75.151657,44.484589 74.892639,44.606346 74.750633,44.613720 
	C74.598099,44.621639 74.440155,44.525158 74.080505,43.904022 
	C72.835655,41.564281 71.794868,39.794750 70.264328,37.192570 
	C68.531532,39.686913 67.359962,41.373371 66.188393,43.059830 
z"/>
<path fill="#CE6803" opacity="1.000000" stroke="none" 
	d="
M138.000229,39.612720 
	C140.100616,46.079651 138.612930,52.935024 138.755600,59.819580 
	C138.091293,59.878941 137.426971,59.938297 136.762665,59.997658 
	C136.485870,58.632137 136.209091,57.266621 135.902542,55.493523 
	C136.580261,52.891121 137.621475,50.739136 137.910110,48.490551 
	C138.265182,45.724209 137.992599,42.877304 138.000229,39.612720 
z"/>
<path fill="#D36509" opacity="1.000000" stroke="none" 
	d="
M130.128708,39.041607 
	C130.128708,39.041607 130.553543,38.982975 130.765594,38.951668 
	C130.977661,45.376705 130.977661,51.833054 130.977661,59.400677 
	C132.685745,57.852333 133.456390,57.153767 134.495926,56.296829 
	C135.069046,59.017429 133.624634,60.126904 130.450714,59.474419 
	C130.038239,52.346821 130.083466,45.694214 130.128708,39.041607 
z"/>
<path fill="#EA6A28" opacity="1.000000" stroke="none" 
	d="
M30.067146,36.471161 
	C29.560316,36.853241 29.112661,36.879906 28.331425,36.858234 
	C27.998875,34.499157 27.999910,32.188419 28.001740,29.440105 
	C32.855240,29.636152 33.151169,30.627304 30.067146,36.471161 
z"/>
<path fill="#F3632D" opacity="1.000000" stroke="none" 
	d="
M41.922005,39.754349 
	C42.239246,42.494469 42.437160,44.977337 42.330830,47.384476 
	C41.657021,46.551754 41.287460,45.794762 40.917900,45.037773 
	C40.917900,45.037773 40.999607,45.003036 40.959038,44.723446 
	C40.594135,43.971973 40.269806,43.500092 39.945480,43.028206 
	C39.945480,43.028206 39.998650,42.998554 39.969830,42.711597 
	C39.599010,41.958366 39.257015,41.492096 38.915016,41.025822 
	C38.915016,41.025822 38.986584,41.044159 38.984211,40.680756 
	C38.990940,39.544514 39.000046,38.771675 39.009148,37.998833 
	C39.451817,37.999241 39.894482,37.999649 40.669178,38.000565 
	C41.268364,38.499744 41.535522,38.998421 41.922005,39.754349 
z"/>
<path fill="#FFED31" opacity="1.000000" stroke="none" 
	d="
M89.881996,40.694283 
	C89.638100,41.909634 89.252762,42.857159 88.551590,43.875153 
	C87.837952,42.231262 87.440147,40.516899 87.054733,38.424057 
	C87.958260,38.839203 88.849411,39.632832 89.881996,40.694283 
z"/>
<path fill="#FFCE4A" opacity="1.000000" stroke="none" 
	d="
M109.711639,37.812149 
	C110.432281,38.621162 110.823418,39.506615 111.175919,41.012405 
	C110.790779,42.035954 110.444283,42.439171 110.039825,42.524559 
	C109.332161,41.115356 108.682457,40.023979 108.032753,38.932602 
	C108.028786,38.751732 108.024811,38.570862 108.028122,38.117840 
	C108.484322,37.859989 108.933220,37.874290 109.711639,37.812149 
z"/>
<path fill="#FFDF45" opacity="1.000000" stroke="none" 
	d="
M35.882645,41.075409 
	C35.882645,41.075409 35.522610,41.039536 35.160698,40.750870 
	C34.219772,40.270897 33.640762,40.079590 33.106125,39.878075 
	C33.150497,39.867867 33.182846,39.782742 33.204163,39.489471 
	C33.161839,38.812626 33.098190,38.429050 33.034542,38.045475 
	C34.085846,38.027786 35.137154,38.010098 36.636040,38.229156 
	C37.083622,38.465908 37.109200,38.937725 36.849163,39.125671 
	C36.353634,39.900883 36.118137,40.488148 35.882645,41.075409 
z"/>
<path fill="#EA6A1F" opacity="1.000000" stroke="none" 
	d="
M144.657318,45.005775 
	C144.490631,47.083008 143.664688,47.871017 142.158295,45.350327 
	C142.888443,45.006283 143.595581,45.003918 144.657318,45.005775 
z"/>
<path fill="#FBC237" opacity="1.000000" stroke="none" 
	d="
M129.650269,37.116020 
	C128.892120,37.439476 127.802780,37.715496 126.357773,37.994141 
	C127.107765,37.687370 128.213425,37.377975 129.650269,37.116020 
z"/>
<path fill="#DD6C10" opacity="1.000000" stroke="none" 
	d="
M37.109200,38.937725 
	C37.109200,38.937725 37.083622,38.465908 37.030590,38.235558 
	C37.507843,37.944908 38.038132,37.884613 38.788780,37.911575 
	C39.000046,38.771675 38.990940,39.544514 38.955589,40.704109 
	C38.929340,41.090858 38.484581,41.028660 38.226990,40.689987 
	C37.682667,39.880119 37.395931,39.408924 37.109200,38.937725 
z"/>
<path fill="#D46906" opacity="1.000000" stroke="none" 
	d="
M32.722652,38.034489 
	C33.098190,38.429050 33.161839,38.812626 32.888542,39.516087 
	C32.030399,39.546879 31.509193,39.257786 30.987986,38.968693 
	C30.987986,38.968693 31.053703,38.526215 31.109890,38.310478 
	C31.580973,38.070992 31.995869,38.047249 32.722652,38.034489 
z"/>
<path fill="#000000" opacity="1.000000" stroke="none" 
	d="
M96.191261,6.330909 
	C96.641312,6.055601 96.862534,5.891352 96.980255,5.393440 
	C97.414864,5.115238 97.863701,5.050474 98.649277,4.916929 
	C99.304031,5.338641 99.622040,5.829134 99.815742,6.579758 
	C99.335381,6.901035 99.083954,7.096708 98.929718,7.675659 
	C97.893715,7.940928 96.865135,7.957445 95.454193,7.895165 
	C95.398445,7.398311 95.725075,6.980252 96.191261,6.330909 
z"/>
<path fill="#000000" opacity="1.000000" stroke="none" 
	d="
M138.910522,13.245190 
	C138.835663,13.580177 138.718506,13.712984 138.335953,13.863453 
	C137.852402,13.344923 137.634216,12.808731 137.584824,12.114662 
	C137.972305,11.988323 138.190994,12.019861 138.729492,12.144489 
	C138.955872,12.498626 138.895508,12.767102 138.910522,13.245190 
z"/>
<path fill="#000000" opacity="1.000000" stroke="none" 
	d="
M135.409760,10.852368 
	C135.472977,10.724771 135.624908,10.600339 135.726318,10.661032 
	C135.675797,10.846157 135.498474,10.855534 135.409760,10.852368 
z"/>
<path fill="#000000" opacity="1.000000" stroke="none" 
	d="
M131.007233,10.296937 
	C131.349991,10.144522 131.669983,10.309490 132.081589,10.739611 
	C132.104645,11.423484 132.036118,11.842206 131.855713,12.563393 
	C131.490707,12.115344 131.237595,11.364832 131.007233,10.296937 
z"/>
<path fill="#EA6A28" opacity="1.000000" stroke="none" 
	d="
M153.924011,50.874138 
	C155.414642,51.747120 156.609863,52.559311 157.913696,53.675606 
	C157.229584,55.288002 156.436874,56.596298 155.321823,57.952091 
	C154.999481,57.999592 154.982971,57.983341 154.987839,57.604691 
	C153.992020,55.822571 152.991333,54.419102 151.994202,53.009094 
	C151.997757,53.002556 151.983475,53.019699 151.983459,53.019695 
	C152.531845,52.284245 153.080215,51.548798 153.924011,50.874138 
z"/>
<path fill="#D36808" opacity="1.000000" stroke="none" 
	d="
M150.991882,60.995506 
	C150.507217,60.990608 150.022537,60.985714 149.222015,60.531502 
	C148.863922,58.110699 148.821655,56.139210 148.779388,54.167721 
	C149.253723,54.116993 149.728027,54.066261 150.588364,54.454727 
	C150.980209,56.927788 150.986053,58.961647 150.991882,60.995506 
z"/>
<path fill="#FFAE43" opacity="1.000000" stroke="none" 
	d="
M151.219116,60.911179 
	C150.986053,58.961647 150.980209,56.927788 150.946381,54.459389 
	C151.125214,53.765549 151.332062,53.506248 151.761185,53.133324 
	C151.983475,53.019699 151.997757,53.002556 152.141174,53.297493 
	C152.484192,54.412022 152.683807,55.231609 152.638809,56.302452 
	C152.261932,57.718475 152.129669,58.883247 151.997391,60.048019 
	C151.907913,60.374283 151.724243,60.633892 151.219116,60.911179 
z"/>
<path fill="#FDCE48" opacity="1.000000" stroke="none" 
	d="
M148.576767,54.405083 
	C148.821655,56.139210 148.863922,58.110699 148.859360,60.505905 
	C148.812546,60.929619 148.394150,60.879787 148.157349,60.572636 
	C147.603912,59.830978 147.287247,59.396477 146.970581,58.961975 
	C147.438446,57.522133 147.906296,56.082287 148.576767,54.405083 
z"/>
<path fill="#FFDC43" opacity="1.000000" stroke="none" 
	d="
M146.699677,59.132225 
	C147.287247,59.396477 147.603912,59.830978 147.948944,60.541843 
	C146.869171,61.123623 145.761002,61.429043 144.316101,61.827618 
	C143.987061,61.478146 143.994751,61.035515 144.009888,60.260151 
	C144.821136,59.719105 145.624954,59.510796 146.699677,59.132225 
z"/>
<path fill="#FBC237" opacity="1.000000" stroke="none" 
	d="
M129.810303,39.316299 
	C130.083466,45.694214 130.038239,52.346821 130.079620,59.453529 
	C129.941452,53.135418 129.716675,46.363205 129.810303,39.316299 
z"/>
<path fill="#FBC237" opacity="1.000000" stroke="none" 
	d="
M127.102806,59.651123 
	C126.821793,53.263111 126.882401,46.629124 126.858658,39.538456 
	C126.997688,45.856236 127.221054,52.630692 127.102806,59.651123 
z"/>
<path fill="#E96B1F" opacity="1.000000" stroke="none" 
	d="
M66.177292,43.512749 
	C67.359962,41.373371 68.531532,39.686913 70.264328,37.192570 
	C71.794868,39.794750 72.835655,41.564281 73.890411,43.690907 
	C73.295387,45.111408 72.686417,46.174820 71.840881,47.809067 
	C71.715614,52.222961 71.826920,56.066029 71.608040,59.954281 
	C70.833252,60.005959 70.388664,60.012447 69.944069,60.018940 
	C65.200752,55.487759 65.882957,49.679771 66.177292,43.512749 
z"/>
<path fill="#FFDE47" opacity="1.000000" stroke="none" 
	d="
M71.938232,59.909092 
	C71.826920,56.066029 71.715614,52.222961 71.805161,48.123993 
	C73.465591,48.019871 74.925179,48.171661 75.985283,48.281910 
	C75.520767,54.222557 75.074623,59.928185 74.316803,65.952454 
	C73.597893,64.573753 73.190666,62.876415 72.384209,60.832523 
	C71.969398,60.293678 71.953819,60.101387 71.938232,59.909092 
z"/>
<path fill="#F07026" opacity="1.000000" stroke="none" 
	d="
M110.097778,42.842384 
	C110.444283,42.439171 110.790779,42.035954 111.255157,41.383732 
	C112.971077,42.078865 114.460243,42.878796 114.044624,45.337200 
	C113.371941,49.316147 113.091042,53.361324 112.401230,57.659180 
	C111.966980,57.907551 111.776215,57.875271 111.298302,57.345787 
	C110.646393,52.563824 110.281624,48.279068 109.961548,43.706215 
	C110.036751,43.226204 110.067268,43.034294 110.097778,42.842384 
z"/>
<path fill="#E07A12" opacity="1.000000" stroke="none" 
	d="
M109.916855,43.994316 
	C110.281624,48.279068 110.646393,52.563824 111.014709,57.284073 
	C110.861748,57.788605 110.705238,57.857632 110.283127,57.734375 
	C110.006699,57.349537 109.995865,57.156979 109.948555,56.629631 
	C109.579498,55.454426 109.246918,54.614014 108.960960,53.349358 
	C108.665596,50.287807 108.323616,47.650497 107.965782,45.014618 
	C107.949928,45.016052 107.931892,44.988823 107.975616,44.728901 
	C108.050880,44.296116 108.082420,44.123257 108.415123,43.953995 
	C109.116478,43.969837 109.516663,43.982075 109.916855,43.994316 
z"/>
<path fill="#FECC43" opacity="1.000000" stroke="none" 
	d="
M107.981636,45.013187 
	C108.323616,47.650497 108.665596,50.287807 108.744270,53.206879 
	C108.286140,53.004120 108.091324,52.519600 107.876114,51.699760 
	C106.823128,51.223976 105.790527,51.083508 104.757935,50.943039 
	C104.743492,49.794914 104.729042,48.646793 105.215134,47.263668 
	C106.470985,46.356838 107.226311,45.685013 107.981636,45.013187 
z"/>
<path fill="#D6640B" opacity="1.000000" stroke="none" 
	d="
M107.965782,45.014618 
	C107.226311,45.685013 106.470985,46.356838 105.359070,47.040382 
	C105.979416,44.444378 102.600952,40.641056 107.618835,38.980804 
	C108.682457,40.023979 109.332161,41.115356 110.039825,42.524559 
	C110.067268,43.034294 110.036751,43.226204 109.961548,43.706215 
	C109.516663,43.982075 109.116478,43.969837 108.490990,43.668755 
	C108.012390,42.377972 107.759087,41.376038 107.505783,40.374107 
	C106.903603,40.612885 106.301430,40.851662 105.699257,41.090439 
	C106.443466,42.389900 107.187683,43.689362 107.931892,44.988823 
	C107.931892,44.988823 107.949928,45.016052 107.965782,45.014618 
z"/>
<path fill="#EC6623" opacity="1.000000" stroke="none" 
	d="
M107.896500,52.035080 
	C108.091324,52.519600 108.286140,53.004120 108.697647,53.631123 
	C109.246918,54.614014 109.579498,55.454426 109.626160,56.789764 
	C106.335258,58.884624 106.044342,56.838009 105.837875,54.677937 
	C105.775810,54.058086 105.713737,53.438236 106.021576,52.453796 
	C106.893150,52.071167 107.394829,52.053123 107.896500,52.035080 
z"/>
<path fill="#D8700B" opacity="1.000000" stroke="none" 
	d="
M105.600616,54.982574 
	C106.044342,56.838009 106.335258,58.884624 109.662643,57.124557 
	C109.995865,57.156979 110.006699,57.349537 110.045380,57.830872 
	C108.803162,58.589993 107.533096,59.060333 106.263039,59.530674 
	C105.963142,58.116184 105.663254,56.701698 105.600616,54.982574 
z"/>
<path fill="#D8700B" opacity="1.000000" stroke="none" 
	d="
M107.876114,51.699760 
	C107.394829,52.053123 106.893150,52.071167 106.013489,52.142258 
	C105.423439,51.930363 105.211372,51.665421 104.878624,51.171757 
	C105.790527,51.083508 106.823128,51.223976 107.876114,51.699760 
z"/>
<path fill="#FFE140" opacity="1.000000" stroke="none" 
	d="
M152.312927,60.037815 
	C152.129669,58.883247 152.261932,57.718475 152.691437,56.588570 
	C153.271469,57.103325 153.554245,57.583210 153.877380,58.375946 
	C153.907913,59.107391 153.898102,59.525990 153.888290,59.944588 
	C153.468338,59.972263 153.048401,59.999939 152.312927,60.037815 
z"/>
<path fill="#EA6A28" opacity="1.000000" stroke="none" 
	d="
M154.147003,59.797043 
	C153.898102,59.525990 153.907913,59.107391 154.164062,58.352901 
	C154.601242,58.005787 154.792099,57.994564 154.982971,57.983341 
	C154.982971,57.983341 154.999481,57.999592 155.008575,58.008873 
	C154.813705,58.561935 154.609711,59.105717 154.147003,59.797043 
z"/>
<path fill="#DA700E" opacity="1.000000" stroke="none" 
	d="
M21.152819,42.891541 
	C21.563532,43.746834 21.974247,44.602127 22.600071,45.639725 
	C23.179409,46.294144 23.543636,46.766262 23.947811,47.539677 
	C22.390846,48.264584 20.793932,48.688190 18.824482,49.469391 
	C18.138741,49.113144 17.825535,48.399307 17.512329,47.685471 
	C20.798342,47.661354 20.108397,44.617912 21.152819,42.891541 
z"/>
<path fill="#EA6A28" opacity="1.000000" stroke="none" 
	d="
M18.818260,36.058243 
	C18.497177,36.290482 18.086967,36.255974 17.372524,36.168667 
	C17.621908,36.007744 18.175520,35.899620 18.818260,36.058243 
z"/>
<path fill="#EF6526" opacity="1.000000" stroke="none" 
	d="
M21.092533,42.557701 
	C20.108397,44.617912 20.798342,47.661354 17.512329,47.685471 
	C17.825535,48.399307 18.138741,49.113144 18.804247,49.840641 
	C19.156548,49.854301 19.125359,49.891800 19.071926,50.351089 
	C18.186510,53.556484 21.029646,57.334606 16.691750,59.096222 
	C16.184393,58.252106 15.677036,57.407986 15.054701,56.287128 
	C14.858393,51.610512 14.777064,47.210632 14.682938,42.403694 
	C15.709899,41.010395 16.749659,40.024151 18.211266,38.637775 
	C19.313648,40.039146 20.172949,41.131500 21.092533,42.557701 
z"/>
<path fill="#DA700E" opacity="1.000000" stroke="none" 
	d="
M16.973145,59.373756 
	C21.029646,57.334606 18.186510,53.556484 19.048355,50.356407 
	C19.651623,52.672020 20.360916,55.428459 20.631718,58.227322 
	C20.666777,58.589664 18.435837,59.171253 16.973145,59.373756 
z"/>
<path fill="#FFCA48" opacity="1.000000" stroke="none" 
	d="
M71.608040,59.954281 
	C71.953819,60.101387 71.969398,60.293678 72.003845,60.775375 
	C72.022713,61.064781 71.996101,61.471001 71.966324,61.671810 
	C71.181503,61.918362 70.426460,61.964104 69.301605,61.912136 
	C69.108963,61.226021 69.286125,60.637615 69.703674,60.034073 
	C70.388664,60.012447 70.833252,60.005959 71.608040,59.954281 
z"/>
<path fill="#EB6928" opacity="1.000000" stroke="none" 
	d="
M83.521286,39.102787 
	C87.400764,44.859623 85.424019,51.350586 85.379097,57.651951 
	C85.375931,58.095913 83.821335,58.528816 82.608261,58.974457 
	C82.553940,52.436569 82.879517,45.891090 83.521286,39.102787 
z"/>
<path fill="#E76B1D" opacity="1.000000" stroke="none" 
	d="
M30.701612,39.277039 
	C31.509193,39.257786 32.030399,39.546879 32.867226,39.809357 
	C33.182846,39.782742 33.150497,39.867867 33.246735,40.279182 
	C33.580719,46.811146 33.818466,52.931786 34.056217,59.052429 
	C34.056217,59.052429 34.104485,59.077156 34.117535,59.101646 
	C33.246258,59.086742 32.361935,59.047344 31.027863,59.001709 
	C30.523827,52.525448 30.469534,46.055416 30.701612,39.277039 
z"/>
<path fill="#FDE92C" opacity="1.000000" stroke="none" 
	d="
M36.849163,39.125671 
	C37.395931,39.408924 37.682667,39.880119 38.010662,40.629807 
	C37.590721,41.568703 37.129513,42.229111 36.346180,42.931652 
	C35.998810,42.551170 35.973564,42.128551 35.915482,41.390671 
	C36.118137,40.488148 36.353634,39.900883 36.849163,39.125671 
z"/>
<path fill="#DD6C10" opacity="1.000000" stroke="none" 
	d="
M40.872086,45.393623 
	C41.287460,45.794762 41.657021,46.551754 42.055710,47.643486 
	C41.917606,47.976700 41.750370,47.975178 41.337570,47.924316 
	C41.003429,47.166473 40.914848,46.457977 40.872086,45.393623 
z"/>
<path fill="#DD6C10" opacity="1.000000" stroke="none" 
	d="
M38.926224,41.331100 
	C39.257015,41.492096 39.599010,41.958366 39.945702,42.729378 
	C39.612740,42.568203 39.275085,42.102291 38.926224,41.331100 
z"/>
<path fill="#DD6C10" opacity="1.000000" stroke="none" 
	d="
M39.926735,43.335892 
	C40.269806,43.500092 40.594135,43.971973 40.921524,44.747456 
	C40.585716,44.581894 40.246849,44.112736 39.926735,43.335892 
z"/>
<path fill="#EA6A28" opacity="1.000000" stroke="none" 
	d="
M91.567230,59.361614 
	C91.675987,58.943817 91.941338,58.691074 92.206680,58.438332 
	C92.311394,58.548347 92.416107,58.658360 92.520821,58.768372 
	C92.255157,59.021137 91.989494,59.273903 91.567230,59.361614 
z"/>
<path fill="#FAB92D" opacity="1.000000" stroke="none" 
	d="
M97.442123,57.207401 
	C97.678986,57.339043 97.639381,57.619305 97.311813,58.049110 
	C97.120911,57.922066 97.168175,57.641186 97.442123,57.207401 
z"/>
<path fill="#F5632E" opacity="1.000000" stroke="none" 
	d="
M99.007675,42.651031 
	C99.635071,42.047955 100.247185,41.863976 100.859299,41.679996 
	C100.859299,47.202232 100.859299,52.724464 100.859299,58.246700 
	C100.237000,58.257702 99.614693,58.268707 98.992393,58.279709 
	C98.992393,53.209846 98.992393,48.139988 99.007675,42.651031 
z"/>
<path fill="#D46906" opacity="1.000000" stroke="none" 
	d="
M34.303162,58.978443 
	C33.818466,52.931786 33.580719,46.811146 33.202362,40.289391 
	C33.640762,40.079590 34.219772,40.270897 34.980183,40.739002 
	C35.112400,46.376530 35.063225,51.737259 35.054352,57.567772 
	C34.913139,58.326519 34.731621,58.615490 34.303162,58.978443 
z"/>
<path fill="#EA6A1F" opacity="1.000000" stroke="none" 
	d="
M154.987839,57.604691 
	C154.792099,57.994564 154.601242,58.005787 154.123718,58.040054 
	C153.554245,57.583210 153.271469,57.103325 152.936066,56.337318 
	C152.683807,55.231609 152.484192,54.412022 152.137604,53.304031 
	C152.991333,54.419102 153.992020,55.822571 154.987839,57.604691 
z"/>
<path fill="#ED6724" opacity="1.000000" stroke="none" 
	d="
M107.975616,44.728901 
	C107.187683,43.689362 106.443466,42.389900 105.699257,41.090439 
	C106.301430,40.851662 106.903603,40.612885 107.505783,40.374107 
	C107.759087,41.376038 108.012390,42.377972 108.189827,43.665150 
	C108.082420,44.123257 108.050880,44.296116 107.975616,44.728901 
z"/>
</svg>